<svg width="54" height="54" viewBox="0 0 54 54" fill="none" xmlns="http://www.w3.org/2000/svg">
<circle cx="27" cy="27" r="27" fill="#D9D9D9"/>
<g clip-path="url(#clip0_224_301)">
<mask id="mask0_224_301" style="mask-type:luminance" maskUnits="userSpaceOnUse" x="0" y="0" width="54" height="54">
<path d="M54 0H0V54H54V0Z" fill="white"/>
</mask>
<g mask="url(#mask0_224_301)">
<path d="M53.9854 26.0538C53.9854 26.1418 53.9854 26.2445 54 26.3325C53.9854 26.2445 53.9854 26.1565 53.9854 26.0538Z" fill="#6B6B6B"/>
<path d="M48.2202 43.687C48.1762 43.7457 48.1321 43.7897 48.0881 43.8484C48.1468 43.7897 48.1762 43.731 48.2202 43.687Z" fill="#6B6B6B"/>
<path d="M51.0073 14.6699C51.066 14.7873 51.1247 14.9046 51.1834 15.022C51.1247 14.89 51.066 14.7726 51.0073 14.6699Z" fill="#6B6B6B"/>
<path d="M52.5769 35.6039C53.5158 32.846 53.9705 30.0147 53.9852 27.1981C53.9705 28.7677 53.8238 30.3521 53.5304 31.9364C53.2957 33.1981 52.973 34.4303 52.5769 35.6039Z" fill="#6B6B6B"/>
<path d="M51.4033 15.4474C51.418 15.4768 51.4327 15.5061 51.4473 15.5501C51.4327 15.5208 51.418 15.4768 51.4033 15.4474Z" fill="#6B6B6B"/>
<path d="M49.7605 14.5085L49.8192 14.6112C49.8045 14.5672 49.7752 14.5379 49.7605 14.5085Z" fill="#6B6B6B"/>
<path d="M52.6358 31.1003C53.0759 28.3717 53.0759 25.555 52.6064 22.7384C52.7825 23.7946 52.8998 24.8802 52.9292 25.9805C53.0172 27.7262 52.8998 29.4426 52.6358 31.1003Z" fill="#6B6B6B"/>
<path d="M52.5037 22.1516C52.5037 22.181 52.5183 22.1956 52.5183 22.225C52.5183 22.1956 52.5183 22.1663 52.5037 22.1516Z" fill="#6B6B6B"/>
<path d="M49.3936 13.8484C49.4522 13.9364 49.4962 14.0244 49.5549 14.1124C49.4962 14.0244 49.4376 13.9364 49.3936 13.8484Z" fill="#6B6B6B"/>
<path d="M52.5037 22.1516C51.9903 19.467 51.0807 16.9291 49.8044 14.5966C50.5233 15.9169 51.1247 17.3105 51.6235 18.7922C52.0049 19.9071 52.2983 21.022 52.5037 22.1516Z" fill="#150042"/>
<path d="M47.5012 44.5672C47.5306 44.5232 47.5746 44.4792 47.6039 44.4352C47.5746 44.4792 47.5452 44.5232 47.5012 44.5672Z" fill="#150042"/>
<path d="M48.22 43.687C50.0977 41.3105 51.5794 38.5965 52.5769 35.6039C52.1662 36.7921 51.6821 37.9804 51.0953 39.1393C50.2738 40.7824 49.3055 42.2934 48.22 43.687Z" fill="#150042"/>
<path d="M51.4475 15.5501C52.8998 18.6601 53.7654 22.0489 53.9561 25.4963C53.7654 21.9902 52.8852 18.6308 51.4475 15.5501Z" fill="#150042"/>
<path d="M50.9045 14.4792C50.9339 14.5379 50.9632 14.6113 51.0072 14.67C50.9779 14.5966 50.9486 14.5379 50.9045 14.4792Z" fill="#150042"/>
<path d="M48.1026 43.8484C48.0293 43.9511 47.9413 44.0391 47.8679 44.1418C47.9413 44.0391 48.0146 43.9364 48.1026 43.8484Z" fill="#150042"/>
<path d="M52.5183 22.2249C52.5477 22.401 52.577 22.577 52.6063 22.7384C52.5917 22.5623 52.5477 22.3863 52.5183 22.2249Z" fill="#150042"/>
<path d="M48.9829 13.1883C48.9829 13.203 48.9976 13.203 48.9976 13.2176C48.9976 13.203 48.9976 13.1883 48.9829 13.1883Z" fill="#150042"/>
<path d="M49.2764 13.643C49.3204 13.7164 49.3497 13.775 49.3937 13.8484C49.3497 13.775 49.3057 13.7164 49.2764 13.643Z" fill="#150042"/>
<path d="M53.2959 20.934C53.3106 21.022 53.3399 21.0953 53.3546 21.1833C53.3399 21.0953 53.3252 21.022 53.2959 20.934Z" fill="#150042"/>
<path d="M48.0732 10.1369C48.1173 10.1809 48.1466 10.2249 48.1906 10.2836C48.1466 10.2396 48.1173 10.1809 48.0732 10.1369Z" fill="#150042"/>
<path d="M53.5159 21.9462C53.5599 22.1809 53.6039 22.4157 53.6479 22.6504C53.6039 22.4303 53.5599 22.1809 53.5159 21.9462Z" fill="#150042"/>
<path d="M48.4988 10.665C48.5134 10.6797 48.5281 10.6944 48.5428 10.709C48.5134 10.709 48.4988 10.6797 48.4988 10.665Z" fill="#150042"/>
<path d="M51.7261 37.8044C51.7261 37.8191 51.7114 37.819 51.7114 37.8337C51.7261 37.8337 51.7261 37.8191 51.7261 37.8044Z" fill="#150042"/>
<path d="M52.9878 19.7164C52.9878 19.731 53.0025 19.7604 53.0025 19.7751C53.0025 19.7604 53.0025 19.7457 52.9878 19.7164Z" fill="#150042"/>
<path d="M53.4131 21.4767C53.4278 21.5794 53.4571 21.6675 53.4718 21.7701C53.4571 21.6675 53.4424 21.5648 53.4131 21.4767Z" fill="#150042"/>
<path d="M46.7678 8.61127C46.8852 8.7433 47.0025 8.86066 47.1199 8.99268C46.9879 8.86066 46.8705 8.72863 46.7678 8.61127Z" fill="#150042"/>
<path d="M47.6479 9.62347C47.7066 9.69682 47.78 9.77017 47.8387 9.85819C47.78 9.77017 47.7213 9.69682 47.6479 9.62347Z" fill="#150042"/>
<path d="M51.3302 38.6993C51.3155 38.7433 51.2862 38.7873 51.2715 38.8313C51.2862 38.7873 51.3008 38.7433 51.3302 38.6993Z" fill="#150042"/>
<path d="M53.1785 20.4352C53.1638 20.3912 53.1492 20.3472 53.1492 20.3032C53.1638 20.3325 53.1638 20.3618 53.1785 20.4059C53.1785 20.4059 53.1785 20.4205 53.1785 20.4352Z" fill="#150042"/>
<path d="M53.8973 29.3398C53.8826 29.5159 53.8679 29.6919 53.8533 29.8533C53.8533 29.6919 53.8679 29.5159 53.8973 29.3398Z" fill="#150042"/>
<path d="M53.9705 27.9462C53.9559 28.401 53.9265 28.8411 53.8972 29.2812C53.9559 28.577 53.9852 27.8875 53.9999 27.198C53.9999 27.1687 53.9999 27.1393 53.9999 27.11C53.9999 26.9486 53.9999 26.7873 53.9999 26.6112C53.9999 26.5085 53.9999 26.4205 53.9999 26.3178C53.9999 26.2298 53.9999 26.1271 53.9852 26.0391C53.9852 25.8777 53.9705 25.7164 53.9705 25.555C53.9705 25.5257 53.9705 25.511 53.9705 25.4816C53.9265 24.7188 53.8532 23.9706 53.7505 23.2225C53.7945 23.5159 53.8238 23.8093 53.8679 24.1027C53.9705 25.379 54.0145 26.6552 53.9705 27.9462Z" fill="#150042"/>
<path d="M53.6479 22.7384C53.6773 22.8704 53.692 23.0171 53.7066 23.1492C53.692 23.0171 53.6773 22.8851 53.6479 22.7384Z" fill="#150042"/>
<path d="M50.1564 40.8704C50.0684 41.0171 49.9804 41.1492 49.8923 41.2958C49.9804 41.1638 50.0684 41.0171 50.1564 40.8704Z" fill="#150042"/>
<path d="M50.4792 40.3276C50.4352 40.4157 50.3765 40.5037 50.3325 40.5917C50.3765 40.5037 50.4205 40.4157 50.4792 40.3276Z" fill="#150042"/>
<path d="M50.978 17.0318C50.9927 17.0611 50.9927 17.0758 51.0074 17.1051C50.9927 17.0758 50.9927 17.0465 50.978 17.0318Z" fill="#150042"/>
<path d="M50.5378 16.0195C50.5672 16.0782 50.5965 16.1369 50.6259 16.1956C50.5965 16.1516 50.5672 16.0929 50.5378 16.0195Z" fill="#150042"/>
<path d="M49.5696 14.1418C49.6136 14.2298 49.6723 14.3178 49.7163 14.4058C49.6576 14.3178 49.6136 14.2298 49.5696 14.1418Z" fill="#150042"/>
<path d="M49.3203 13.7311C49.335 13.7457 49.3497 13.7751 49.3643 13.7898C49.3497 13.7751 49.335 13.7604 49.3203 13.7311Z" fill="#150042"/>
<path d="M49.0562 13.3056C49.0708 13.3349 49.0855 13.3643 49.1002 13.3936C49.1002 13.3643 49.0855 13.3349 49.0562 13.3056Z" fill="#150042"/>
<path d="M48.7629 12.8362C48.7776 12.8655 48.7923 12.8949 48.807 12.9095C48.807 12.8949 48.7923 12.8655 48.7629 12.8362Z" fill="#150042"/>
<path d="M46.137 9.43274C46.1956 9.49142 46.2397 9.5501 46.2983 9.60878C46.2397 9.5501 46.181 9.49142 46.137 9.43274Z" fill="#150042"/>
<path d="M49.5403 14.1125C49.4816 14.0244 49.4376 13.9364 49.379 13.8484C49.3643 13.8337 49.3643 13.8191 49.3496 13.8044C49.423 13.9217 49.4816 14.0391 49.555 14.1565C49.555 14.1418 49.555 14.1271 49.5403 14.1125Z" fill="#150042"/>
<path d="M49.819 14.5966C49.8043 14.5673 49.7897 14.5379 49.7603 14.4939C49.7457 14.4646 49.731 14.4352 49.7163 14.4059C49.7456 14.4792 49.7897 14.5526 49.819 14.5966Z" fill="#150042"/>
<path d="M50.2004 15.3447C50.2298 15.4034 50.2738 15.4768 50.3031 15.5354C50.2738 15.4768 50.2444 15.4181 50.2004 15.3447Z" fill="#150042"/>
<path d="M50.4207 15.7701C50.4647 15.8582 50.494 15.9315 50.538 16.0195C50.494 15.9462 50.45 15.8582 50.4207 15.7701Z" fill="#150042"/>
<path d="M49.2764 13.643C49.2177 13.555 49.1737 13.467 49.115 13.379C49.1883 13.4963 49.2617 13.6137 49.335 13.731C49.3057 13.7017 49.291 13.6724 49.2764 13.643Z" fill="#150042"/>
<path d="M51.4914 38.3472C51.4328 38.4645 51.3888 38.5819 51.3301 38.6992C51.3741 38.5819 51.4328 38.4645 51.4914 38.3472Z" fill="#150042"/>
<path d="M50.3179 40.5917C50.2592 40.6944 50.2005 40.7824 50.1565 40.8851C50.2152 40.7824 50.2592 40.6797 50.3179 40.5917Z" fill="#150042"/>
<path d="M49.4964 41.912C49.4964 41.9267 49.4817 41.9267 49.4817 41.9413C49.4817 41.9267 49.4817 41.9267 49.4964 41.912Z" fill="#150042"/>
<path d="M48.1908 11.9853C48.2935 12.132 48.3962 12.2787 48.4842 12.4108C48.5722 12.5575 48.6749 12.6895 48.7629 12.8362C48.2055 11.9707 47.5893 11.1491 46.9438 10.3716C47.3546 10.8704 47.7654 11.3839 48.1468 11.9267C48.1615 11.9413 48.1761 11.9707 48.1908 11.9853Z" fill="#150042"/>
<path d="M53.0024 19.7751C53.0465 19.9511 53.0905 20.1272 53.1345 20.2885C53.1051 20.1272 53.0611 19.9511 53.0024 19.7751Z" fill="#150042"/>
<path d="M53.8387 29.8533C53.824 29.9266 53.824 30 53.8093 30.0586C53.824 30 53.8387 29.9266 53.8387 29.8533Z" fill="#150042"/>
<path d="M51.0073 14.6699C51.066 14.7873 51.1246 14.9046 51.1833 15.022C51.2567 15.1687 51.33 15.3154 51.4034 15.4621C51.418 15.4914 51.4327 15.5208 51.4474 15.5648C51.9902 16.7384 52.4596 17.9413 52.8263 19.1589C52.4889 18.044 52.0782 16.9584 51.6087 15.9168C51.5941 15.8875 51.5794 15.8582 51.5794 15.8435C51.5061 15.6968 51.4474 15.5501 51.374 15.3887C51.33 15.3007 51.286 15.2127 51.242 15.1247C51.198 15.0367 51.154 14.9633 51.1246 14.8753C51.0513 14.7286 50.9779 14.5819 50.9046 14.4499C50.8899 14.4205 50.8752 14.4058 50.8752 14.3765C50.2004 13.1002 49.4229 11.8826 48.5427 10.7237C49.4376 11.912 50.2298 13.1589 50.9193 14.4792C50.9486 14.5379 50.9779 14.5966 51.0073 14.6699Z" fill="#150042"/>
<path d="M53.3545 21.1833C53.3692 21.286 53.3985 21.3741 53.4132 21.4767C53.3985 21.3741 53.3838 21.2714 53.3545 21.1833Z" fill="#150042"/>
<path d="M53.4866 21.7701C53.5012 21.8288 53.5159 21.8875 53.5159 21.9609C53.5012 21.8875 53.4866 21.8288 53.4866 21.7701Z" fill="#150042"/>
<path d="M53.6479 22.665C53.6479 22.6944 53.6626 22.7237 53.6626 22.7531C53.6479 22.7237 53.6479 22.6944 53.6479 22.665Z" fill="#150042"/>
<path d="M52.5769 35.6039C52.3275 36.3374 52.0488 37.0709 51.7261 37.8044C52.2102 36.6895 52.6209 35.5452 52.9583 34.3717C52.973 34.313 52.9877 34.269 53.0024 34.2103C53.0317 34.0783 53.0757 33.9609 53.105 33.8289C53.1344 33.7115 53.1637 33.5941 53.1931 33.4768C53.2077 33.4181 53.2224 33.3448 53.2371 33.2861C53.4571 32.3325 53.6332 31.3643 53.7652 30.3668C53.6918 30.8949 53.6185 31.423 53.5158 31.9511C53.2958 33.1981 52.973 34.4303 52.5769 35.6039Z" fill="#150042"/>
<path d="M50.4792 40.3276C50.758 39.8435 51.022 39.3301 51.2714 38.8313C51.2274 38.934 51.1687 39.0367 51.1101 39.1394C50.9047 39.5501 50.6846 39.9315 50.4792 40.3276Z" fill="#150042"/>
<path d="M47.4719 9.41809C47.5306 9.49144 47.5893 9.55012 47.648 9.62347C47.5893 9.55012 47.5306 9.47677 47.4719 9.41809Z" fill="#150042"/>
<path d="M45.6821 8.96332C45.8288 9.12469 45.9902 9.28606 46.1369 9.44743C45.9755 9.27139 45.8288 9.11002 45.6821 8.96332Z" fill="#150042"/>
<path d="M49.0122 13.2176C49.0122 13.2029 48.9976 13.2029 48.9976 13.1883C48.9389 13.1002 48.8802 13.0122 48.8215 12.9242C48.9096 13.0562 48.9829 13.1736 49.0563 13.3056C49.0416 13.2763 49.0269 13.2469 49.0122 13.2176Z" fill="#150042"/>
<path d="M46.2837 9.60883C46.4744 9.82887 46.6651 10.0489 46.8558 10.269C46.6798 10.0489 46.4891 9.82887 46.2837 9.60883Z" fill="#150042"/>
<path d="M48.1907 10.2836C48.2934 10.4157 48.3961 10.5477 48.4987 10.6797C48.3961 10.533 48.2934 10.401 48.1907 10.2836Z" fill="#150042"/>
<path d="M47.8386 9.84351C47.912 9.9462 48 10.0342 48.0733 10.1369C48 10.0342 47.9266 9.9462 47.8386 9.84351Z" fill="#150042"/>
<path d="M52.8264 19.1589C52.8851 19.3496 52.9438 19.5404 52.9878 19.7164C52.9438 19.5257 52.8851 19.3496 52.8264 19.1589Z" fill="#150042"/>
<path d="M44.0979 6.10272C44.2153 6.20541 44.3326 6.3081 44.4646 6.39612C44.3473 6.3081 44.2153 6.20541 44.0979 6.10272Z" fill="#6B6B6B"/>
<path d="M2.8313 39.022C4.41565 42.2054 6.63081 45.0954 9.40343 47.4719C6.66015 45.1247 4.43032 42.2347 2.8313 39.022Z" fill="#6B6B6B"/>
<path d="M43.1882 5.39856C43.2029 5.41323 43.2322 5.4279 43.2469 5.44257C43.2322 5.4279 43.2176 5.41323 43.1882 5.39856Z" fill="#6B6B6B"/>
<path d="M39.5061 50.9194C42.5134 49.3497 45.242 47.2079 47.5012 44.5526C45.2567 47.1785 42.5428 49.335 39.5061 50.9194Z" fill="#6B6B6B"/>
<path d="M19.2029 52.8411C18.9828 52.7677 18.7481 52.6944 18.5281 52.621C21.2567 53.5306 24.044 53.9707 26.8166 53.9853C25.2469 53.9707 23.6479 53.824 22.0489 53.5306C21.0806 53.3545 20.1271 53.1198 19.2029 52.8411Z" fill="#6B6B6B"/>
<path d="M35.6479 1.42298C32.8607 0.469438 29.9853 0.0146699 27.1541 0C28.7384 0.0146699 30.3374 0.161369 31.9511 0.454768C33.2127 0.704156 34.445 1.02689 35.6479 1.42298Z" fill="#6B6B6B"/>
<path d="M50.9046 14.4793C49.3349 11.4719 47.1931 8.74332 44.5232 6.46948C47.1491 8.71398 49.3203 11.4426 50.9046 14.4793Z" fill="#6B6B6B"/>
<path d="M8.71386 7.14425C10.0342 5.92665 11.4718 4.85575 12.9975 3.91687C12.352 4.29829 11.7359 4.72372 11.1197 5.16381C9.52071 6.32274 8.03904 7.67237 6.71875 9.18337C7.07083 8.78728 7.43758 8.3912 7.80432 8.02445C8.09772 7.71638 8.39112 7.42298 8.71386 7.14425Z" fill="#6B6B6B"/>
<path d="M9.66756 47.6919C9.59421 47.6333 9.52086 47.5599 9.44751 47.5012C9.52086 47.5746 9.59421 47.6333 9.66756 47.6919Z" fill="#6B6B6B"/>
<path d="M27.4034 53.9854C27.2127 53.9854 27.022 53.9854 26.8167 53.9854C27.022 54 27.2127 54 27.4034 53.9854Z" fill="#6B6B6B"/>
<path d="M27.9903 53.9707C27.8583 53.9707 27.7409 53.9854 27.6089 53.9854C27.7409 53.9854 27.8583 53.9854 27.9903 53.9707Z" fill="#6B6B6B"/>
<path d="M38.6405 51.3447C38.5671 51.3741 38.4938 51.4181 38.4204 51.4474C38.4938 51.4181 38.5671 51.3887 38.6405 51.3447Z" fill="#6B6B6B"/>
<path d="M39.4181 50.9633C39.2714 51.0367 39.1101 51.1247 38.9634 51.198C39.1247 51.1247 39.2714 51.0367 39.4181 50.9633Z" fill="#6B6B6B"/>
<path d="M25.8337 0.0293794C25.9511 0.0293794 26.0685 0.0147095 26.2005 0.0147095C26.0685 0.0147095 25.9511 0.0147095 25.8337 0.0293794Z" fill="#6B6B6B"/>
<path d="M15.9463 2.36185C16.093 2.30317 16.225 2.22982 16.3717 2.17114C16.2397 2.24449 16.093 2.30317 15.9463 2.36185Z" fill="#6B6B6B"/>
<path d="M5.72119 10.3864C5.85322 10.225 5.98525 10.0489 6.11728 9.88757C5.98525 10.0489 5.85322 10.2103 5.72119 10.3864Z" fill="#6B6B6B"/>
<path d="M6.24927 9.72619C6.39597 9.56483 6.528 9.38879 6.6747 9.22742C6.54267 9.38879 6.39597 9.55016 6.24927 9.72619Z" fill="#6B6B6B"/>
<path d="M14.9634 2.83133C14.5819 3.02204 14.2152 3.21274 13.8485 3.41812C13.8338 3.43279 13.8191 3.43279 13.8044 3.44746C14.4206 3.09539 15.0661 2.77265 15.7115 2.47925C15.4621 2.58194 15.2128 2.71397 14.9634 2.83133Z" fill="#6B6B6B"/>
<path d="M13.0122 3.91687C13.1442 3.82885 13.2909 3.7555 13.4376 3.66748C13.2909 3.74083 13.1442 3.82885 13.0122 3.91687Z" fill="#6B6B6B"/>
<path d="M31.4524 1.40833C31.4964 1.40833 31.5257 1.423 31.5698 1.423C31.5404 1.423 31.4964 1.423 31.4524 1.40833Z" fill="#6B6B6B"/>
<path d="M41.2959 5.3252C41.3399 5.35454 41.3692 5.38388 41.4133 5.41322C41.3692 5.36921 41.3252 5.33987 41.2959 5.3252Z" fill="#6B6B6B"/>
<path d="M41.7654 5.63324C41.8827 5.72126 42.0001 5.79461 42.1175 5.88263C42.0001 5.80928 41.8827 5.72126 41.7654 5.63324Z" fill="#6B6B6B"/>
<path d="M10.5183 6.93892C11.0464 6.49882 11.6039 6.07339 12.176 5.6773C12.9535 5.13451 13.7604 4.63574 14.5965 4.18097C14.0538 4.47437 13.511 4.79711 12.9975 5.11984C11.9706 5.77999 11.0024 6.49882 10.0929 7.27632C8.88995 8.30322 7.7897 9.4328 6.82149 10.6504C6.66012 10.8411 6.51342 11.0465 6.35205 11.2519C7.56965 9.65285 8.97797 8.2152 10.5183 6.93892Z" fill="#6B6B6B"/>
<path d="M48.9828 13.1883C47.1931 10.3277 44.8899 7.89246 42.2346 5.9707C44.9192 7.9218 47.2077 10.3717 48.9828 13.1883Z" fill="#6B6B6B"/>
<path d="M30.7188 1.29095C30.8214 1.30562 30.9241 1.32029 31.0415 1.33496C30.9388 1.33496 30.8214 1.30562 30.7188 1.29095Z" fill="#6B6B6B"/>
<path d="M29.9266 1.18829C27.8288 0.953577 25.7016 0.968247 23.5452 1.24697C24.3373 1.14429 25.1589 1.07094 25.9804 1.0416C27.3153 0.997587 28.6356 1.05627 29.9266 1.18829Z" fill="#6B6B6B"/>
<path d="M22.885 1.36435C23.1051 1.33501 23.3251 1.291 23.5452 1.26166C23.3104 1.291 23.1051 1.32034 22.885 1.36435Z" fill="#6B6B6B"/>
<path d="M16.3716 3.30075C16.4889 3.25674 16.5916 3.19806 16.709 3.15405C16.6063 3.19806 16.4889 3.25674 16.3716 3.30075Z" fill="#6B6B6B"/>
<path d="M15.6235 3.65282C15.7409 3.59414 15.8583 3.55013 15.9609 3.49146C15.8436 3.55013 15.7262 3.60881 15.6235 3.65282Z" fill="#6B6B6B"/>
<path d="M29.9707 1.20294C30.1467 1.21761 30.3228 1.24695 30.4988 1.26162C30.3081 1.24695 30.1467 1.21761 29.9707 1.20294Z" fill="#6B6B6B"/>
<path d="M16.269 3.35944C16.1663 3.40345 16.0636 3.44746 15.9756 3.50614C16.1076 3.44746 16.2543 3.37411 16.3863 3.31543C16.3423 3.31543 16.2983 3.3301 16.269 3.35944Z" fill="#150042"/>
<path d="M22.4009 1.43768C21.462 1.59905 20.5525 1.8191 19.6576 2.08316C18.6454 2.37656 17.6772 2.74331 16.7236 3.15406C17.3984 2.86067 18.0879 2.59661 18.7921 2.36189C19.9804 1.9658 21.198 1.65773 22.4009 1.43768Z" fill="#150042"/>
<path d="M5.98536 11.7506C4.56238 13.7164 3.40345 15.8729 2.56727 18.1907C2.56727 18.2054 2.5526 18.22 2.5526 18.2347C2.52326 18.3081 2.50859 18.3667 2.47925 18.4401C3.24208 16.2836 4.28365 14.2152 5.58927 12.3227C5.7213 12.132 5.85333 11.9413 5.98536 11.7506Z" fill="#150042"/>
<path d="M5.03174 11.2959C5.13443 11.1492 5.23712 11.0171 5.33981 10.8704C5.25179 11.0171 5.13443 11.1492 5.03174 11.2959Z" fill="#150042"/>
<path d="M6.6748 9.21275C6.68947 9.19808 6.68947 9.18341 6.70414 9.18341C6.70414 9.19808 6.68947 9.21275 6.6748 9.21275Z" fill="#150042"/>
<path d="M12.3228 49.643C11.4866 49.1002 10.7091 48.5281 9.94629 47.9266C12.4402 49.9658 15.3448 51.5794 18.5282 52.6357C17.2813 52.2249 16.049 51.7115 14.846 51.11C13.9658 50.6552 13.1297 50.1711 12.3228 49.643Z" fill="#150042"/>
<path d="M5.66266 10.4597C5.64799 10.4744 5.63332 10.489 5.61865 10.5037C5.64799 10.4597 5.67733 10.4157 5.72134 10.3864C5.70667 10.401 5.67733 10.4304 5.66266 10.4597Z" fill="#150042"/>
<path d="M14.5967 4.18094C14.6554 4.1516 14.714 4.10759 14.7874 4.07825C14.7287 4.10759 14.67 4.1516 14.5967 4.18094Z" fill="#150042"/>
<path d="M38.4205 51.4474C35.3251 52.8851 31.9657 53.736 28.5476 53.9413C32.0244 53.7506 35.3691 52.8851 38.4205 51.4474Z" fill="#150042"/>
<path d="M28.3717 53.9561C28.2396 53.9561 28.1076 53.9708 27.9902 53.9708C28.1076 53.9708 28.2396 53.9708 28.3717 53.9561Z" fill="#150042"/>
<path d="M38.9634 51.1981C38.8607 51.2567 38.7433 51.3007 38.6406 51.3594C38.758 51.3007 38.8607 51.2421 38.9634 51.1981Z" fill="#150042"/>
<path d="M9.44733 47.5013C9.43266 47.4866 9.41799 47.4866 9.40332 47.4719C9.41799 47.4866 9.43266 47.5013 9.44733 47.5013Z" fill="#150042"/>
<path d="M9.87286 47.868C9.79951 47.8093 9.72616 47.7506 9.66748 47.692C9.74083 47.7506 9.79951 47.8093 9.87286 47.868Z" fill="#150042"/>
<path d="M6.26416 11.3839C6.2935 11.3399 6.33751 11.2958 6.36685 11.2518C6.32284 11.2958 6.2935 11.3399 6.26416 11.3839Z" fill="#150042"/>
<path d="M41.4131 5.39856C41.5304 5.47191 41.6478 5.55993 41.7652 5.63328C41.6478 5.55993 41.5304 5.48658 41.4131 5.39856Z" fill="#150042"/>
<path d="M29.9268 1.18829C29.9414 1.18829 29.9561 1.18829 29.9708 1.18829C29.9561 1.20296 29.9414 1.20296 29.9268 1.18829Z" fill="#150042"/>
<path d="M44.4646 6.41077C44.4939 6.42544 44.5086 6.45478 44.5379 6.46945C44.5086 6.45478 44.4793 6.42544 44.4646 6.41077Z" fill="#150042"/>
<path d="M13.4231 3.6675C13.5551 3.59415 13.6725 3.5208 13.8045 3.44745C13.6872 3.5208 13.5551 3.59415 13.4231 3.6675Z" fill="#150042"/>
<path d="M30.4841 1.26166C30.5575 1.27633 30.6455 1.27633 30.7188 1.291C30.6455 1.291 30.5722 1.27633 30.4841 1.26166Z" fill="#150042"/>
<path d="M31.0415 1.34967C31.1882 1.37901 31.3202 1.39368 31.4669 1.42302C31.3202 1.39368 31.1735 1.36434 31.0415 1.34967Z" fill="#150042"/>
<path d="M43.1882 5.39853C41.1051 3.82885 38.7579 2.55256 36.22 1.62836C37.2029 1.99511 38.1857 2.40586 39.1393 2.88997C40.5916 3.62347 41.9412 4.45965 43.1882 5.39853Z" fill="#150042"/>
<path d="M31.5842 1.43768C35.061 2.06849 38.3617 3.38878 41.2957 5.32521C38.3911 3.40345 35.105 2.06849 31.5842 1.43768Z" fill="#150042"/>
<path d="M25.3496 0.0440493C25.511 0.0293794 25.6723 0.0293794 25.8337 0.0147095C25.6723 0.0293794 25.511 0.0440493 25.3496 0.0440493Z" fill="#150042"/>
<path d="M16.3716 2.17119C19.1589 0.982921 22.1515 0.264095 25.2029 0.0587158C22.1222 0.264095 19.1442 0.997591 16.3716 2.17119Z" fill="#150042"/>
<path d="M15.7114 2.47922C15.7848 2.44988 15.8728 2.40587 15.9461 2.37653C15.8728 2.40587 15.7848 2.43521 15.7114 2.47922Z" fill="#150042"/>
<path d="M22.6797 1.39366C22.753 1.37899 22.8117 1.37899 22.8851 1.36432C22.8117 1.36432 22.753 1.37899 22.6797 1.39366Z" fill="#150042"/>
<path d="M2.88998 14.846C3.50612 13.6137 4.21027 12.4548 4.98778 11.3692C3.53546 13.423 2.34719 15.6968 1.49634 18.1467C1.64304 17.7506 1.78974 17.3399 1.95111 16.9438C2.22983 16.2396 2.5379 15.5501 2.88998 14.846Z" fill="#150042"/>
<path d="M35.6479 1.42297C35.7946 1.46698 35.9267 1.52566 36.0734 1.56967C35.9267 1.52566 35.78 1.46698 35.6479 1.42297Z" fill="#150042"/>
<path d="M15.1687 3.87288C15.3154 3.79953 15.4621 3.72618 15.6088 3.65283C15.4768 3.72618 15.3154 3.79953 15.1687 3.87288Z" fill="#150042"/>
<path d="M0.132102 29.6333C0.132102 29.6186 0.132102 29.6186 0.132102 29.6039C0.132102 29.5599 0.117432 29.5012 0.117432 29.4572C0.132102 29.5892 0.146771 29.7213 0.161441 29.868C0.161441 29.7946 0.146771 29.7359 0.146771 29.6626C0.132102 29.6479 0.132102 29.6333 0.132102 29.6333Z" fill="#6B6B6B"/>
<path d="M0.102684 24.8069C0.117354 24.6895 0.117354 24.5575 0.132024 24.4401C0.132024 24.4108 0.132024 24.3668 0.146694 24.3375C0.146694 24.2641 0.161364 24.1908 0.176034 24.1321C0.176034 24.0587 0.190704 24 0.190704 23.9267C0.205374 23.824 0.220044 23.736 0.220044 23.6333C0.234713 23.5013 0.249383 23.3839 0.264053 23.2519C0.264053 23.2225 0.264053 23.2079 0.278723 23.1785C0.337403 22.8118 0.381413 22.4597 0.454762 22.093C0.396083 22.401 0.337403 22.7238 0.293393 23.0318C0.0733443 24.5282 -0.0293452 26.0392 0.0146646 27.5355C-0.0146753 26.6406 0.0146646 25.7164 0.102684 24.8069Z" fill="#6B6B6B"/>
<path d="M0.68951 20.9486C0.70418 20.9046 0.71885 20.846 0.71885 20.8019C0.76286 20.5966 0.821539 20.3912 0.865549 20.1858C0.880219 20.1125 0.909559 20.0538 0.924229 19.9804C0.968239 19.7897 1.02692 19.6137 1.0856 19.423C0.850879 20.2298 0.6455 21.0513 0.484131 21.8582C0.513471 21.6968 0.542811 21.5501 0.57215 21.3887C0.61616 21.242 0.66017 21.0953 0.68951 20.9486Z" fill="#6B6B6B"/>
<path d="M1.14429 19.2176C1.21764 18.9976 1.27632 18.7775 1.34967 18.5575C1.29099 18.7775 1.21764 18.9976 1.14429 19.2176Z" fill="#6B6B6B"/>
<path d="M1.49627 18.1614C1.45226 18.2787 1.42292 18.3961 1.37891 18.4988C1.39358 18.4694 1.39358 18.4401 1.40825 18.4108C1.43759 18.3227 1.46693 18.2494 1.49627 18.1614Z" fill="#6B6B6B"/>
<path d="M1.83373 36.7629C1.78972 36.6308 1.73104 36.5135 1.68703 36.3814C1.62835 36.2494 1.58434 36.1027 1.54033 35.956C1.52566 35.8973 1.49632 35.8533 1.48165 35.7947C1.48165 35.78 1.46698 35.7506 1.46698 35.736C1.45231 35.6773 1.43764 35.6333 1.4083 35.5746C1.36429 35.4426 1.32028 35.2959 1.27627 35.1638C1.2616 35.1052 1.24693 35.0612 1.23226 35.0025C1.18825 34.8851 1.15891 34.7531 1.1149 34.6357C1.07089 34.489 1.02688 34.357 0.997541 34.2103C0.997541 34.181 0.982871 34.1663 0.982871 34.137C0.616123 32.8313 0.366734 31.4817 0.205365 30.1321C0.205365 30.1174 0.205365 30.1174 0.205365 30.1027C0.190695 30.0147 0.190695 29.9414 0.176025 29.8533C0.205365 30.1174 0.234705 30.3668 0.264045 30.6308C0.572113 32.9193 1.18825 35.1492 2.05378 37.247C2.00977 37.1443 1.96576 37.0416 1.93642 36.9389C1.87774 36.8802 1.86307 36.8215 1.83373 36.7629Z" fill="#150042"/>
<path d="M0.117453 29.4572C0.117453 29.3985 0.102783 29.3545 0.102783 29.2958C0.102783 29.3398 0.102783 29.3985 0.117453 29.4572Z" fill="#150042"/>
<path d="M38.3179 2.4939C38.3619 2.50857 38.4059 2.53791 38.4499 2.55258C38.4206 2.53791 38.3766 2.52324 38.3179 2.4939Z" fill="#150042"/>
<path d="M37.6138 2.18585C37.6578 2.20052 37.7165 2.22986 37.7605 2.24453C37.7165 2.22986 37.6724 2.20052 37.6138 2.18585Z" fill="#150042"/>
<path d="M36.0733 1.56973C36.0146 1.55506 35.9559 1.52572 35.8972 1.51105C35.9852 1.54039 36.0586 1.56973 36.1466 1.59907C36.1173 1.5844 36.0879 1.5844 36.0733 1.56973Z" fill="#150042"/>
<path d="M39.8435 3.25671C39.9902 3.33006 40.1222 3.40341 40.2543 3.49143C40.1222 3.40341 39.9755 3.33006 39.8435 3.25671Z" fill="#150042"/>
<path d="M40.3423 3.53546C40.5037 3.62348 40.665 3.7115 40.8117 3.81419C40.665 3.72617 40.5037 3.62348 40.3423 3.53546Z" fill="#150042"/>
<path d="M0.13208 24.4401C0.14675 24.3374 0.14675 24.2347 0.16142 24.1174C0.14675 24.1907 0.14675 24.2641 0.13208 24.3228C0.13208 24.3668 0.13208 24.3961 0.13208 24.4401Z" fill="#150042"/>
<path d="M0.821502 33.5941C0.528104 32.4352 0.322725 31.2909 0.176025 30.132C0.337395 31.4817 0.601453 32.8313 0.953532 34.1369C0.924192 33.9609 0.865512 33.7848 0.821502 33.5941Z" fill="#150042"/>
<path d="M0.13208 29.6626C0.13208 29.7359 0.14675 29.7946 0.14675 29.868C0.16142 29.956 0.16142 30.0293 0.17609 30.1174C0.16142 29.956 0.14675 29.8093 0.13208 29.6626Z" fill="#150042"/>
<path d="M29.9414 0.161377C30.0294 0.176047 30.1174 0.176047 30.2055 0.190717C30.1174 0.190717 30.0294 0.176047 29.9414 0.161377Z" fill="#150042"/>
<path d="M6.32275 44.3472C7.26163 45.4621 8.28852 46.5184 9.40344 47.4719C9.41811 47.4866 9.43278 47.4866 9.44745 47.5013C9.5208 47.5599 9.59415 47.6333 9.6675 47.692C9.74085 47.7507 9.8142 47.8093 9.87288 47.868C9.90222 47.8827 9.91689 47.912 9.94623 47.9267C10.6797 48.5135 11.4426 49.0709 12.2494 49.5991C11.5012 49.115 10.7677 48.5868 10.0783 48.0294C8.69928 46.9145 7.43767 45.6822 6.32275 44.3472Z" fill="#150042"/>
<path d="M0.98291 34.2103C1.02692 34.357 1.05626 34.489 1.10027 34.6357C1.07093 34.5037 1.02692 34.357 0.98291 34.2103Z" fill="#150042"/>
<path d="M1.54028 35.9707C1.58429 36.1174 1.64297 36.2494 1.68698 36.3961C1.64297 36.2494 1.58429 36.1027 1.54028 35.9707Z" fill="#150042"/>
<path d="M1.4082 35.5746C1.42287 35.6333 1.43754 35.6773 1.46688 35.736C1.43754 35.6919 1.42287 35.6333 1.4082 35.5746Z" fill="#150042"/>
<path d="M0.27883 23.1785C0.27883 23.2079 0.27883 23.2225 0.26416 23.2519C0.26416 23.2225 0.27883 23.1932 0.27883 23.1785Z" fill="#150042"/>
<path d="M43.6576 5.75066C43.7603 5.82401 43.863 5.91203 43.9657 5.98538C44.0977 6.08807 44.2151 6.19076 44.3471 6.29344C44.3765 6.32278 44.4058 6.33745 44.4352 6.36679C45.242 7.05628 46.0195 7.78978 46.7383 8.56728C46.0488 7.83379 45.3154 7.12963 44.5525 6.46948C44.5232 6.45481 44.5085 6.42547 44.4792 6.4108C44.3618 6.30811 44.2444 6.20543 44.1124 6.11741C44.0391 6.05873 43.9657 6.00005 43.8924 5.9267C43.8043 5.86802 43.731 5.80934 43.6576 5.75066C43.5256 5.64797 43.3936 5.54528 43.2616 5.44259C43.2469 5.42792 43.2175 5.41325 43.2029 5.39858C42.4547 4.84112 41.6772 4.32767 40.8704 3.84357C41.7799 4.38635 42.6601 4.98782 43.4963 5.6333C43.5403 5.66264 43.599 5.70665 43.6576 5.75066Z" fill="#150042"/>
<path d="M0.220014 23.6186C0.205344 23.7213 0.190674 23.8093 0.190674 23.912C0.190674 23.824 0.205344 23.7213 0.220014 23.6186Z" fill="#150042"/>
<path d="M24.1613 0.146695C24.308 0.132025 24.4547 0.117355 24.6161 0.102685C24.6748 0.102685 24.7188 0.0880149 24.7775 0.0880149C25.819 -4.67896e-06 26.8899 -0.0293445 27.9608 0.0146653C28.3569 0.0293352 28.753 0.058675 29.1491 0.0880149C28.4743 0.0293352 27.7995 -4.6799e-06 27.1393 -4.6799e-06C27.11 -4.6799e-06 27.0806 -4.6799e-06 27.0513 -4.6799e-06C26.8606 -4.6799e-06 26.6699 -4.6799e-06 26.4645 -4.6799e-06C26.3765 -4.6799e-06 26.2738 -4.6799e-06 26.1858 -4.6799e-06C26.0684 -4.6799e-06 25.951 0.0146653 25.819 0.0146653C25.6576 0.0146653 25.4963 0.0293352 25.3349 0.0440051C25.2909 0.0440051 25.2469 0.0440051 25.1882 0.058675C23.1491 0.190704 21.1393 0.557453 19.2029 1.14425C19.5843 1.02689 19.9804 0.924201 20.3765 0.821511C21.6528 0.513443 22.9144 0.293394 24.1613 0.146695Z" fill="#150042"/>
<path d="M1.61358 17.824C1.56957 17.9413 1.52556 18.044 1.49622 18.1467C1.46688 18.2347 1.43754 18.3228 1.4082 18.4108C1.46688 18.2201 1.54023 18.0147 1.61358 17.824Z" fill="#150042"/>
<path d="M6.88018 8.99268C6.8215 9.05136 6.76282 9.12471 6.70414 9.18338C6.68947 9.19805 6.68947 9.21272 6.6748 9.21272C6.61612 9.2714 6.57211 9.34475 6.51343 9.40343C6.55744 9.34475 6.61612 9.30074 6.66013 9.24206C6.73348 9.15405 6.80683 9.0807 6.88018 8.99268Z" fill="#150042"/>
<path d="M5.16382 11.1198C5.57458 10.5624 6.00001 10.0196 6.44011 9.49146C6.38143 9.5648 6.30808 9.63815 6.2494 9.7115C6.20539 9.77018 6.16138 9.82886 6.11737 9.87287C5.98534 10.0342 5.85331 10.1956 5.72128 10.3717C5.69194 10.4157 5.6626 10.4597 5.61859 10.489C5.53057 10.6064 5.42788 10.7384 5.33986 10.8558C5.23717 11.0025 5.13448 11.1345 5.03179 11.2812C5.01712 11.3105 5.00246 11.3252 4.97312 11.3545C4.92911 11.4279 4.8851 11.5012 4.82642 11.5599C4.85576 11.5306 4.87043 11.4866 4.89977 11.4426C5.00246 11.3545 5.09047 11.2372 5.16382 11.1198Z" fill="#150042"/>
<path d="M0.131927 29.6039C0.0879168 29.1932 0.058577 28.7677 0.0439071 28.357C-0.000102717 27.5795 -0.000102716 26.8166 0.0292371 26.0391C0.0439071 25.6284 0.0732469 25.2029 0.102587 24.7922C0.0292371 25.7164 -0.000102716 26.6259 0.0145672 27.5355V27.5648C0.0145672 27.7262 0.0292371 27.9022 0.0292371 28.0636C0.0292371 28.1222 0.0292371 28.1956 0.0439071 28.2543C0.0439071 28.357 0.058577 28.4743 0.058577 28.577C0.0732469 28.7971 0.0879168 29.0318 0.102587 29.2518C0.102587 29.2665 0.102587 29.2665 0.102587 29.2812C0.102587 29.3399 0.117257 29.3839 0.117257 29.4425C0.117257 29.5012 0.117257 29.5452 0.131927 29.6039Z" fill="#150042"/>
<path d="M35.6038 52.577C35.5451 52.5917 35.4718 52.621 35.4131 52.6357C35.4718 52.621 35.5304 52.6064 35.6038 52.577Z" fill="#150042"/>
<path d="M36.132 52.401C36.1026 52.4157 36.0586 52.4303 36.0293 52.4303C36.0586 52.4303 36.088 52.4157 36.132 52.401Z" fill="#150042"/>
<path d="M41.1932 49.9658C41.1785 49.9658 41.1785 49.9804 41.1638 49.9804C41.1638 49.9804 41.1785 49.9658 41.1932 49.9658Z" fill="#150042"/>
<path d="M36.6748 52.1956C36.6602 52.1956 36.6602 52.1956 36.6455 52.2103C36.6602 52.2103 36.6602 52.1956 36.6748 52.1956Z" fill="#150042"/>
<path d="M41.7506 49.5991C41.7213 49.6137 41.6919 49.6284 41.6626 49.6577C41.6919 49.6431 41.7213 49.6284 41.7506 49.5991Z" fill="#150042"/>
<path d="M30.6454 53.736C30.4547 53.7653 30.264 53.78 30.0732 53.8093C30.264 53.7946 30.4547 53.7653 30.6454 53.736Z" fill="#150042"/>
<path d="M31.3203 53.6479C31.1589 53.6773 30.9976 53.692 30.8362 53.7213C30.9976 53.692 31.1589 53.6626 31.3203 53.6479Z" fill="#150042"/>
<path d="M42.2934 49.2323C42.2494 49.2616 42.2054 49.291 42.1614 49.3203C42.2054 49.3057 42.2494 49.2616 42.2934 49.2323Z" fill="#150042"/>
<path d="M44.4205 47.6187C44.3031 47.7214 44.1711 47.8241 44.0537 47.9268C44.1711 47.8241 44.2884 47.7214 44.4205 47.6187Z" fill="#150042"/>
<path d="M43.9072 48.0439C43.8045 48.1319 43.7018 48.2053 43.5991 48.2933C43.6871 48.2053 43.8045 48.1319 43.9072 48.0439Z" fill="#150042"/>
<path d="M13.1882 50.1858C13.0709 50.1125 12.9682 50.0538 12.8508 49.9805C12.9535 50.0538 13.0709 50.1125 13.1882 50.1858Z" fill="#150042"/>
<path d="M7.12964 8.71394C7.18832 8.65526 7.23233 8.59658 7.29101 8.5379C7.247 8.59658 7.18832 8.65526 7.12964 8.71394Z" fill="#150042"/>
<path d="M11.2517 5.06117C11.3104 5.01716 11.3837 4.97315 11.4424 4.92914C11.3837 4.97315 11.3251 5.01716 11.2517 5.06117Z" fill="#150042"/>
<path d="M8.71391 7.14429C8.53787 7.30566 8.36183 7.4817 8.18579 7.65774C9.06599 6.79221 10.0049 6.00004 11.0024 5.26654C10.1956 5.85334 9.43274 6.46947 8.71391 7.14429Z" fill="#150042"/>
<path d="M11.7947 4.69436C11.8534 4.66502 11.8974 4.62101 11.956 4.59167C11.8974 4.62101 11.8534 4.65035 11.7947 4.69436Z" fill="#150042"/>
<path d="M18.1174 1.511C18.2935 1.45232 18.4548 1.39364 18.6309 1.33496C18.4548 1.39364 18.2788 1.45232 18.1174 1.511Z" fill="#150042"/>
<path d="M17.5745 1.70174C17.7358 1.64306 17.8825 1.58438 18.0439 1.5257C17.8972 1.58438 17.7358 1.64306 17.5745 1.70174Z" fill="#150042"/>
<path d="M17.0757 1.89245C17.2077 1.83377 17.3544 1.78976 17.4864 1.73108C17.3397 1.78976 17.2077 1.83377 17.0757 1.89245Z" fill="#150042"/>
<path d="M4.89968 42.4988C4.89968 42.4842 4.88501 42.4842 4.88501 42.4695C4.89968 42.4842 4.89968 42.4988 4.89968 42.4988Z" fill="#150042"/>
<path d="M12.3226 49.6431C12.44 49.7164 12.5573 49.7898 12.6747 49.8631C12.528 49.7751 12.396 49.6871 12.2493 49.5991C12.2639 49.6137 12.2933 49.6284 12.3226 49.6431Z" fill="#150042"/>
<path d="M13.7164 50.4939C13.6431 50.4499 13.555 50.4059 13.4817 50.3619C13.555 50.4059 13.6284 50.4499 13.7164 50.4939Z" fill="#150042"/>
<path d="M14.846 51.0954C14.8607 51.0954 14.8753 51.11 14.89 51.11C14.8607 51.0954 14.846 51.0807 14.8167 51.0807C14.8313 51.0954 14.846 51.0954 14.846 51.0954Z" fill="#150042"/>
<path d="M1.64307 17.7359C1.67241 17.6479 1.71642 17.5452 1.74576 17.4572C1.71642 17.5452 1.68708 17.6333 1.64307 17.7359Z" fill="#150042"/>
<path d="M5.76537 43.6724C5.70669 43.599 5.66268 43.5403 5.604 43.467C5.66268 43.5257 5.72136 43.599 5.76537 43.6724Z" fill="#150042"/>
<path d="M43.8337 7.21765C43.9951 7.36435 44.1712 7.51105 44.3325 7.65775C44.1565 7.51105 43.9951 7.36435 43.8337 7.21765Z" fill="#150042"/>
<path d="M16.7091 3.15404C17.1785 2.94866 17.6626 2.75795 18.1467 2.58191C17.5306 2.80196 16.9291 3.05135 16.3276 3.33008C16.3423 3.31541 16.357 3.31541 16.3863 3.30074C16.489 3.25673 16.6064 3.19805 16.7091 3.15404Z" fill="#150042"/>
<path d="M22.6651 1.39368C22.137 1.4817 21.6236 1.58439 21.1101 1.70175C21.5355 1.59906 21.9756 1.51104 22.4157 1.43769C22.4891 1.42302 22.5771 1.40835 22.6651 1.39368Z" fill="#150042"/>
<path d="M23.5305 1.26165C23.5451 1.26165 23.5451 1.26165 23.5305 1.26165C24.0733 1.1883 24.6014 1.12962 25.1295 1.10028C24.3227 1.15896 23.5158 1.24698 22.7236 1.39368C22.7676 1.37901 22.8263 1.37901 22.8703 1.36434C23.1051 1.32033 23.3104 1.29099 23.5305 1.26165Z" fill="#150042"/>
<path d="M44.6846 7.98047C44.7873 8.06849 44.8753 8.17118 44.978 8.2592C44.8753 8.17118 44.7726 8.06849 44.6846 7.98047Z" fill="#150042"/>
<path d="M7.43758 9.91687C7.40824 9.94621 7.3789 9.97555 7.34956 10.0049C7.30555 10.0489 7.26154 10.1076 7.21753 10.1663C7.30555 10.0782 7.3789 9.99022 7.43758 9.91687C7.45225 9.91687 7.45225 9.91687 7.43758 9.91687Z" fill="#150042"/>
<path d="M15.5354 3.69684C15.374 3.78486 15.198 3.85821 15.0366 3.94623C15.0806 3.91689 15.1246 3.90222 15.1687 3.87288C15.3007 3.8142 15.418 3.75552 15.5354 3.69684Z" fill="#150042"/>
<path d="M14.1125 4.45968C14.2739 4.37166 14.4353 4.28364 14.5967 4.19562C14.4206 4.26897 14.2739 4.37166 14.1125 4.45968Z" fill="#150042"/>
<path d="M16.1956 3.38879C16.0196 3.47681 15.8289 3.55016 15.6528 3.63818C15.7555 3.59417 15.8582 3.53549 15.9609 3.49148C16.0343 3.46214 16.1076 3.41813 16.1956 3.38879Z" fill="#150042"/>
<path d="M41.4133 5.39853C41.5306 5.47188 41.648 5.5599 41.7653 5.63325C41.8827 5.72127 42.0001 5.79462 42.1174 5.88264C42.1614 5.91198 42.1908 5.94132 42.2348 5.97066C42.3961 6.08802 42.5575 6.20538 42.7189 6.32274C42.6602 6.27873 42.6015 6.23472 42.5428 6.19071C42.5135 6.16137 42.4842 6.1467 42.4548 6.13203C42.3375 6.04401 42.2201 5.95599 42.0881 5.86797C42.0001 5.80929 41.9267 5.75061 41.8387 5.69193C41.78 5.64792 41.7067 5.60391 41.648 5.5599C41.516 5.47188 41.3693 5.36919 41.2372 5.28117C41.2226 5.28117 41.2226 5.2665 41.2079 5.2665C39.9463 4.44498 38.6406 3.74083 37.291 3.1687C38.6993 3.77017 40.0343 4.50366 41.2959 5.33985C41.3252 5.33985 41.3693 5.36919 41.4133 5.39853Z" fill="#150042"/>
<path d="M45.6822 8.96332C45.6089 8.8753 45.5209 8.80195 45.4475 8.71393C45.5209 8.78728 45.5942 8.8753 45.6822 8.96332Z" fill="#150042"/>
<path d="M26.1418 1.04159C26.2739 1.04159 26.4206 1.02692 26.5526 1.02692C26.4206 1.04159 26.2739 1.04159 26.1418 1.04159Z" fill="#150042"/>
<path d="M25.2322 1.08561C25.4376 1.07094 25.6576 1.05627 25.863 1.05627C25.6429 1.07094 25.4376 1.07094 25.2322 1.08561Z" fill="#150042"/>
<path d="M36.7188 2.91931C36.8801 2.99266 37.0415 3.05134 37.2175 3.12469C37.0562 3.05134 36.8948 2.97799 36.7188 2.91931Z" fill="#150042"/>
<path d="M2.88989 17.3399C2.99258 17.0758 3.10994 16.7971 3.2273 16.533C3.12461 16.7971 3.00725 17.0611 2.88989 17.3399Z" fill="#150042"/>
<path d="M32.8899 53.3399C33.4767 53.2079 34.0635 53.0612 34.6356 52.8851C34.2835 52.9878 33.9461 53.0758 33.594 53.1785C33.3593 53.2372 33.1246 53.2812 32.8899 53.3399Z" fill="#150042"/>
<path d="M2.55261 18.2494C2.55261 18.2347 2.56728 18.2201 2.56728 18.2054C2.66997 17.912 2.77266 17.6333 2.89002 17.3546C2.46459 18.4108 2.11251 19.4964 1.83378 20.5966C1.81911 20.6406 1.80444 20.6993 1.80444 20.7433C1.99515 19.9658 2.2152 19.2176 2.47926 18.4695C2.5086 18.3814 2.52327 18.3081 2.55261 18.2494Z" fill="#150042"/>
<path d="M1.10034 25.115C1.10034 25.0856 1.10034 25.0416 1.11501 25.0123C1.11501 25.0416 1.10034 25.0709 1.10034 25.115Z" fill="#150042"/>
<path d="M48.3081 43.5697C48.2055 43.7017 48.1028 43.8337 48.0001 43.9658C47.9267 44.0538 47.8534 44.1565 47.78 44.2445C47.7213 44.3032 47.6773 44.3765 47.6187 44.4352C46.7971 45.4034 45.9023 46.3276 44.9487 47.1638C45.8583 46.357 46.7238 45.4768 47.516 44.5526C47.5453 44.5086 47.5893 44.4646 47.6187 44.4205C47.7067 44.3179 47.7947 44.2152 47.868 44.1125C47.9414 44.0245 48.0294 43.9218 48.1028 43.8191C48.1468 43.7604 48.1908 43.7164 48.2348 43.6577C48.6749 43.1003 49.0856 42.5135 49.4964 41.912C49.1443 42.4401 48.7629 42.9682 48.3815 43.467C48.3375 43.5257 48.3228 43.555 48.3081 43.5697Z" fill="#150042"/>
<path d="M10.0929 7.27631C10.3129 7.0856 10.533 6.90956 10.753 6.73352C10.4596 6.96824 10.1809 7.20296 9.90217 7.43768C9.47675 7.80443 9.06599 8.18584 8.68457 8.58193C9.13934 8.14183 9.60878 7.70174 10.0929 7.27631Z" fill="#150042"/>
<path d="M6.26404 11.3839C6.29338 11.3399 6.33739 11.2959 6.36673 11.2519C6.51342 11.0465 6.67479 10.8558 6.83616 10.6504C6.95352 10.5037 7.07088 10.3717 7.18824 10.225C7.17357 10.2396 7.17357 10.2396 7.1589 10.2543C7.07088 10.357 6.99753 10.445 6.90951 10.5477C6.80682 10.6797 6.70413 10.7971 6.60144 10.9291C6.51342 11.0465 6.42541 11.1639 6.33739 11.2812C6.29338 11.3399 6.24937 11.3986 6.20536 11.4426C5.83861 11.9414 5.47186 12.4548 5.14912 12.9683C4.60633 13.8191 4.10756 14.6993 3.68213 15.6088C4.34228 14.2592 5.11978 12.9683 5.99998 11.7506C6.07333 11.6333 6.16135 11.5013 6.26404 11.3839Z" fill="#150042"/>
<path d="M3.40351 16.1516C3.3595 16.2396 3.31549 16.3423 3.27148 16.4303C3.37417 16.2103 3.47686 15.9903 3.57955 15.7702C3.52087 15.9022 3.46219 16.0196 3.40351 16.1516Z" fill="#150042"/>
<path d="M26.0392 53.9707C25.5551 53.956 25.0857 53.9267 24.6016 53.8827C25.3497 53.956 26.0832 53.9854 26.8167 53.9854C27.0074 53.9854 27.1981 53.9854 27.4035 53.9854C27.4769 53.9854 27.5355 53.9854 27.6089 53.9854C27.7409 53.9854 27.8583 53.9854 27.9903 53.9707C28.1223 53.9707 28.2544 53.956 28.3717 53.956C28.4304 53.956 28.4891 53.956 28.5478 53.9414C29.0319 53.912 29.516 53.868 30.0001 53.8093C28.7091 53.9707 27.3888 54.0147 26.0392 53.9707Z" fill="#150042"/>
<path d="M6.32268 44.3471C6.27867 44.3031 6.24933 44.2591 6.20532 44.2004C6.23466 44.2444 6.27867 44.2884 6.32268 44.3471Z" fill="#150042"/>
<path d="M10.9878 5.26652C11.0758 5.20784 11.1638 5.13449 11.2519 5.07581C11.1638 5.13449 11.0758 5.19317 10.9878 5.26652Z" fill="#150042"/>
<path d="M1.12946 19.291C1.12946 19.3057 1.11479 19.3203 1.11479 19.335C1.10012 19.3644 1.10012 19.3937 1.08545 19.423C1.10012 19.3497 1.12946 19.291 1.14413 19.2177C1.14413 19.247 1.12946 19.2617 1.12946 19.291Z" fill="#150042"/>
<path d="M2.08309 37.3937C2.06842 37.3497 2.03908 37.3057 2.02441 37.2617C2.03908 37.291 2.06842 37.3497 2.08309 37.3937Z" fill="#150042"/>
<path d="M1.62844 17.78C1.62844 17.7947 1.61377 17.8093 1.61377 17.824C1.62844 17.7947 1.64311 17.7653 1.64311 17.7213C1.64311 17.7507 1.62844 17.7653 1.62844 17.78Z" fill="#150042"/>
<path d="M1.36426 18.5575C1.36426 18.5428 1.37893 18.5282 1.37893 18.5135C1.36426 18.5135 1.36426 18.5282 1.36426 18.5575Z" fill="#150042"/>
<path d="M6.98279 8.88997C6.95345 8.91931 6.92412 8.96332 6.89478 8.99266C6.98279 8.90464 7.05614 8.80195 7.14416 8.71393C7.08548 8.77261 7.0268 8.83129 6.98279 8.88997Z" fill="#150042"/>
<path d="M4.63571 11.868C4.63571 11.8827 4.63571 11.8827 4.63571 11.868C4.57703 11.956 4.53302 12.0294 4.48901 12.088C4.60637 11.912 4.72373 11.7506 4.84109 11.5746C4.76774 11.6773 4.70906 11.78 4.63571 11.868Z" fill="#150042"/>
<path d="M6.49884 9.43278C6.48417 9.44745 6.4695 9.47679 6.45483 9.49146C6.48417 9.46212 6.49884 9.43278 6.52818 9.40344C6.51351 9.41811 6.49884 9.43278 6.49884 9.43278Z" fill="#150042"/>
<path d="M8.68467 8.58191C8.25924 9.00734 7.84848 9.44743 7.45239 9.9022C7.52574 9.81418 7.61376 9.72616 7.70178 9.62347C8.00985 9.28607 8.34726 8.93399 8.68467 8.58191Z" fill="#150042"/>
<path d="M36.6455 52.2103C36.4695 52.2836 36.2935 52.3423 36.1174 52.401C36.3081 52.3423 36.4842 52.2689 36.6455 52.2103Z" fill="#150042"/>
<path d="M43.5843 48.2935C43.5109 48.3522 43.4376 48.3962 43.3789 48.4549C43.4523 48.3962 43.5109 48.3522 43.5843 48.2935Z" fill="#150042"/>
<path d="M44.4938 47.5599C44.4644 47.5746 44.4498 47.6039 44.4204 47.6186C44.4351 47.6039 44.4644 47.5746 44.4938 47.5599Z" fill="#150042"/>
<path d="M42.6455 48.9976C42.5282 49.0856 42.4108 49.1589 42.2935 49.2469C42.4108 49.1589 42.5282 49.0709 42.6455 48.9976Z" fill="#150042"/>
<path d="M12.3666 5.54523C12.4253 5.50122 12.484 5.47188 12.528 5.42787C12.704 5.31051 12.8947 5.17848 13.0854 5.06112C13.0854 5.06112 13.0855 5.06112 13.1001 5.06112C13.4375 4.85574 13.7603 4.65036 14.0977 4.45966C13.7163 4.6797 13.3495 4.88508 12.9828 5.1198C12.3813 5.50122 11.8092 5.91198 11.2517 6.33741C11.5304 6.11736 11.8238 5.91198 12.1172 5.7066C12.2199 5.64792 12.2933 5.58924 12.3666 5.54523Z" fill="#150042"/>
<path d="M41.6626 49.6577C41.5012 49.7604 41.3398 49.8631 41.1785 49.9658C41.3545 49.8631 41.5012 49.7604 41.6626 49.6577Z" fill="#150042"/>
<path d="M42.1612 49.335C42.0292 49.423 41.8825 49.5257 41.7505 49.6137C41.8825 49.511 42.0292 49.423 42.1612 49.335Z" fill="#150042"/>
<path d="M43.1149 48.6455C43.0269 48.7189 42.9242 48.7775 42.8362 48.8509C42.9389 48.7775 43.0269 48.7189 43.1149 48.6455Z" fill="#150042"/>
<path d="M52.5182 22.225C52.5182 22.1956 52.5036 22.181 52.5036 22.1516C52.2102 20.5673 51.7554 19.0269 51.1833 17.5599C51.4913 18.3668 51.7701 19.1883 52.0048 20.0098C52.8116 22.8998 53.105 25.8925 52.885 28.8411C51.7701 35.648 46.2835 41.1932 39.0806 42.0881C33.6087 42.7629 28.6356 38.8753 27.9608 33.4035C27.7847 31.9511 28.1368 30.5428 28.885 29.4132C28.5476 29.5306 28.2102 29.6773 27.9021 29.868C26.6552 30.5868 25.6576 31.7604 25.1882 33.2274C23.5158 38.4793 26.4058 44.0832 31.6576 45.7555C38.5671 47.956 45.8728 45.2127 49.731 39.4915C51.1686 36.8949 52.1368 34.0489 52.6209 31.1003C53.061 28.3717 53.061 25.555 52.5916 22.7384C52.5916 22.5624 52.5476 22.3863 52.5182 22.225Z" fill="#B8B8B8"/>
<path d="M14.1417 50.7286C13.995 50.6553 13.863 50.5672 13.7163 50.4939C13.8483 50.5672 13.995 50.6553 14.1417 50.7286Z" fill="#150042"/>
<path d="M23.9854 53.824C23.7507 53.7946 23.5306 53.7653 23.2959 53.736C23.5306 53.7653 23.7653 53.7946 23.9854 53.824Z" fill="#150042"/>
<path d="M30.0293 53.824C30.044 53.824 30.0587 53.824 30.0733 53.824C30.044 53.824 30.0293 53.824 30 53.8386C30.0147 53.824 30.0147 53.824 30.0293 53.824Z" fill="#150042"/>
<path d="M13.4816 50.3619C13.3789 50.3032 13.2909 50.2445 13.1882 50.1859C13.2763 50.2445 13.3789 50.3032 13.4816 50.3619Z" fill="#150042"/>
<path d="M14.8167 51.0807C14.626 50.9927 14.45 50.89 14.2739 50.8019C14.45 50.9046 14.6407 50.9927 14.8167 51.0807Z" fill="#150042"/>
<path d="M35.4133 52.6504C35.3106 52.6797 35.2079 52.7237 35.1052 52.7531C35.1932 52.7091 35.2959 52.6797 35.4133 52.6504Z" fill="#150042"/>
<path d="M36.0294 52.4303C35.8827 52.4743 35.736 52.533 35.604 52.577C35.736 52.533 35.8827 52.489 36.0294 52.4303Z" fill="#150042"/>
<path d="M34.7824 52.8411C34.7384 52.8557 34.6798 52.8704 34.6357 52.8851C34.6944 52.8704 34.7384 52.8557 34.7824 52.8411Z" fill="#150042"/>
<path d="M18.9096 2.31786C19.071 2.25918 19.247 2.21517 19.4084 2.15649C19.4817 2.12715 19.5551 2.11248 19.6284 2.08314C19.7311 2.0538 19.8338 2.02446 19.9365 1.99512C20.0685 1.95111 20.2152 1.92177 20.3472 1.87776C20.3912 1.86309 20.4206 1.86309 20.4646 1.84842C20.67 1.78974 20.8754 1.74573 21.0954 1.70172C20.6113 1.81908 20.1272 1.93644 19.6431 2.08314C19.1296 2.22984 18.6309 2.40588 18.1321 2.58192C18.3668 2.4939 18.6162 2.40588 18.8509 2.33253C18.8802 2.33253 18.8949 2.31786 18.9096 2.31786Z" fill="#150042"/>
<path d="M32.89 53.3398C32.8753 53.3398 32.8606 53.3545 32.8313 53.3545C32.846 53.3545 32.8753 53.3398 32.89 53.3398Z" fill="#150042"/>
<path d="M30.7335 53.736C30.7775 53.736 30.8069 53.7213 30.8509 53.7213C30.7922 53.736 30.7188 53.736 30.6602 53.7507C30.6748 53.736 30.7042 53.736 30.7335 53.736Z" fill="#150042"/>
<path d="M19.2028 52.8411C18.9828 52.7678 18.7481 52.6944 18.528 52.6211C17.2958 52.2103 16.0782 51.7115 14.8899 51.11C16.3862 51.8582 17.9559 52.4743 19.5696 52.9438C19.5843 52.9438 19.5989 52.9585 19.6136 52.9585C19.7016 52.9878 19.8043 53.0171 19.8923 53.0318C19.9804 53.0611 20.0684 53.0758 20.1564 53.1052C20.1857 53.1198 20.2151 53.1198 20.2444 53.1198C21.1833 53.3545 22.1368 53.5599 23.1197 53.692C23.1637 53.692 23.1931 53.7066 23.2371 53.7066C22.841 53.6479 22.4449 53.5893 22.0341 53.5159C21.0806 53.3545 20.1271 53.1198 19.2028 52.8411Z" fill="#150042"/>
<path d="M32.2151 53.4866C32.1564 53.5012 32.0978 53.5159 32.0244 53.5159C32.0978 53.5012 32.1564 53.4866 32.2151 53.4866Z" fill="#150042"/>
<path d="M31.0563 1.34966C31.203 1.379 31.335 1.39367 31.4817 1.42301C31.6284 1.45235 31.7605 1.48169 31.9072 1.49636C31.9512 1.51103 31.9952 1.51103 32.0539 1.5257C33.2568 1.76042 34.4304 2.08316 35.5893 2.49392C34.2984 2.03915 32.9487 1.68707 31.5698 1.43768C31.5257 1.43768 31.4964 1.42301 31.4524 1.42301C31.3204 1.39367 31.1737 1.379 31.027 1.34966C30.9243 1.33499 30.8216 1.32032 30.7042 1.30565C30.6309 1.29098 30.5429 1.27631 30.4695 1.27631C30.2935 1.24697 30.1174 1.2323 29.9414 1.21763C29.9267 1.21763 29.9121 1.21763 29.8974 1.21763C29.8094 1.20296 29.7067 1.20296 29.6187 1.18829C30.0441 1.2323 30.4695 1.29098 30.8949 1.34966C30.9683 1.33499 31.0123 1.34966 31.0563 1.34966Z" fill="#150042"/>
<path d="M31.555 53.6039C31.4817 53.6186 31.4083 53.6333 31.335 53.648C31.3936 53.6333 31.467 53.6186 31.555 53.6039Z" fill="#150042"/>
<path d="M22.6797 1.39364C22.6651 1.39364 22.6651 1.39364 22.6504 1.39364C22.6797 1.39364 22.6944 1.37897 22.7237 1.37897C22.7091 1.37897 22.6944 1.39364 22.6797 1.39364Z" fill="#150042"/>
<path d="M16.2689 3.35942C16.2396 3.37409 16.2249 3.38876 16.1956 3.38876C16.2396 3.37409 16.2836 3.34475 16.3276 3.33008C16.2982 3.33008 16.2836 3.34475 16.2689 3.35942Z" fill="#150042"/>
<path d="M36.9243 1.89246C36.6602 1.78977 36.3961 1.68708 36.1321 1.59906C36.1614 1.61373 36.1908 1.61373 36.2201 1.6284C36.4548 1.71642 36.6895 1.80444 36.9243 1.89246Z" fill="#150042"/>
<path d="M39.3595 3.00736C39.0661 2.86066 38.758 2.69929 38.45 2.56726C38.6847 2.66995 38.9047 2.78731 39.1248 2.90467C39.2128 2.93401 39.2861 2.96335 39.3595 3.00736Z" fill="#150042"/>
<path d="M35.6478 1.42298C35.7358 1.45232 35.8092 1.48166 35.8972 1.511C35.3837 1.33496 34.8703 1.1736 34.3568 1.01223C34.3275 0.997556 34.2982 0.997556 34.2688 0.982886C34.1221 0.938876 33.9608 0.894866 33.8141 0.865527C33.726 0.836187 33.6234 0.821517 33.5353 0.792177C33.4473 0.762837 33.3593 0.748167 33.2566 0.718827C33.0952 0.674818 32.9339 0.645478 32.7725 0.601468C32.7432 0.601468 32.7138 0.586798 32.6845 0.586798C32.0537 0.454769 31.3935 0.337409 30.748 0.24939C31.1441 0.308069 31.5549 0.366749 31.951 0.440099C33.2126 0.704157 34.4449 1.0269 35.6478 1.42298Z" fill="#150042"/>
<path d="M25.8484 1.05623C25.9511 1.05623 26.0391 1.05623 26.1418 1.04156C26.0391 1.04156 25.9511 1.05623 25.8484 1.05623Z" fill="#150042"/>
<path d="M25.1443 1.10027C25.1736 1.10027 25.203 1.10027 25.2323 1.10027C25.203 1.0856 25.1736 1.10027 25.1443 1.10027Z" fill="#150042"/>
<path d="M3.24194 16.533C3.25661 16.5037 3.27128 16.4744 3.28595 16.4304C3.27128 16.4597 3.25661 16.5037 3.24194 16.533Z" fill="#150042"/>
<path d="M39.4181 50.9633C39.2714 51.0367 39.11 51.1247 38.9633 51.1981C38.8606 51.2567 38.7433 51.3007 38.6406 51.3594C38.5672 51.3888 38.4939 51.4328 38.4205 51.4621C37.8484 51.7262 37.2616 51.9756 36.6748 52.2103C37.1736 52.0196 37.6577 51.8289 38.1271 51.6088C38.3032 51.5355 38.4792 51.4474 38.6552 51.3594C38.7139 51.3301 38.7726 51.3007 38.8313 51.2714C38.9486 51.2127 39.0513 51.154 39.1687 51.11C39.2861 51.0514 39.4034 50.9927 39.5208 50.934C39.5794 50.9047 39.6235 50.8753 39.6821 50.846C40.1809 50.5819 40.6797 50.2885 41.1638 49.9951C40.621 50.3325 40.0782 50.6406 39.5061 50.934C39.4768 50.934 39.4474 50.9487 39.4181 50.9633Z" fill="#150042"/>
<path d="M2.27393 37.8337C2.40596 38.1418 2.55265 38.4645 2.69935 38.7726C2.69935 38.7873 2.71402 38.7873 2.71402 38.802C2.78737 38.9487 2.86072 39.11 2.93407 39.2567C2.96341 39.3154 2.99275 39.3741 3.02209 39.4181C3.0661 39.5061 3.12478 39.6088 3.16879 39.6968C3.27148 39.9022 3.38884 40.0929 3.49153 40.2983C3.49153 40.313 3.5062 40.313 3.5062 40.3276C3.53554 40.3716 3.56488 40.4156 3.59422 40.4743C3.66757 40.5917 3.72625 40.709 3.7996 40.8264C4.13701 41.3985 4.50375 41.9413 4.88517 42.4841C4.12234 41.3839 3.43285 40.2249 2.83138 39.022C2.64067 38.6259 2.44996 38.2445 2.27393 37.8337Z" fill="#150042"/>
<path d="M3.59424 15.7702C3.62358 15.7115 3.63825 15.6675 3.66759 15.6088C3.63825 15.6675 3.60891 15.7115 3.59424 15.7702Z" fill="#150042"/>
<path d="M0.498844 21.8582C0.498844 21.8729 0.498844 21.8876 0.484174 21.9169C0.484174 21.9462 0.469504 21.9756 0.469504 22.0049C0.469504 22.0343 0.454834 22.0636 0.454834 22.0929C0.469504 22.0196 0.484174 21.9462 0.498844 21.8582Z" fill="#150042"/>
<path d="M8.17121 7.64307C7.87781 7.93646 7.58441 8.22986 7.29102 8.53793C7.45238 8.36189 7.62842 8.18585 7.78979 8.00981C7.92182 7.89246 8.05385 7.7751 8.17121 7.64307Z" fill="#150042"/>
<path d="M14.7872 4.07824C14.7285 4.10758 14.6698 4.13692 14.5965 4.18093C14.5965 4.18093 14.5818 4.18093 14.5818 4.1956C14.7285 4.10758 14.8899 4.03423 15.0366 3.96088C14.9485 3.99022 14.8752 4.03423 14.7872 4.07824Z" fill="#150042"/>
<path d="M13.0122 3.91687C13.1443 3.82885 13.291 3.7555 13.4377 3.66748C13.5697 3.59413 13.6871 3.52078 13.8191 3.44743C14.4352 3.09535 15.0807 2.77262 15.7262 2.47922C15.7995 2.44988 15.8876 2.40587 15.9609 2.37653C16.1076 2.31785 16.2396 2.2445 16.3863 2.18582C16.4597 2.15648 16.5477 2.12714 16.6211 2.08313C16.357 2.18582 16.1076 2.30318 15.8435 2.42054C15.8142 2.43521 15.7849 2.44988 15.7702 2.44988C15.5942 2.52323 15.4181 2.61125 15.2421 2.69927C15.1541 2.74328 15.066 2.78729 14.9927 2.81663C14.89 2.87531 14.7726 2.91932 14.67 2.978C14.5233 3.05134 14.3766 3.12469 14.2445 3.19804C14.2005 3.22738 14.1565 3.24205 14.1272 3.27139C13.5697 3.57946 13.0269 3.9022 12.4841 4.23961C12.6455 4.13692 12.8215 4.01956 13.0122 3.91687C12.9976 3.91687 12.9976 3.91687 13.0122 3.91687Z" fill="#150042"/>
<path d="M7.17358 10.2249C7.18825 10.2103 7.20292 10.1809 7.23226 10.1663C7.21759 10.1809 7.18825 10.2103 7.17358 10.2249Z" fill="#150042"/>
<path d="M2.88986 14.846C3.34463 13.9511 3.82873 13.1003 4.37152 12.2787C3.47666 13.6431 2.71382 15.0954 2.08301 16.6064C1.96565 16.8851 1.86296 17.1638 1.74561 17.4572C1.80429 17.2959 1.87763 17.1198 1.93631 16.9585C2.22971 16.2396 2.53778 15.5501 2.88986 14.846Z" fill="#150042"/>
<path d="M15.6234 3.65285C15.5941 3.66752 15.5647 3.68219 15.55 3.69686C15.5794 3.68219 15.6234 3.66752 15.6527 3.63818C15.6381 3.65285 15.6234 3.65285 15.6234 3.65285Z" fill="#150042"/>
<path d="M10.7529 6.73348C10.7823 6.71881 10.7969 6.68947 10.8263 6.6748C10.8116 6.68947 10.7823 6.71881 10.7529 6.73348Z" fill="#150042"/>
<path d="M29.6772 0.132019C29.7653 0.146689 29.8533 0.146689 29.9413 0.161359C29.8533 0.161359 29.7653 0.146689 29.6772 0.132019Z" fill="#150042"/>
<path d="M44.978 8.25916C45.1394 8.40585 45.2861 8.55254 45.4328 8.71391C45.2861 8.55254 45.1247 8.40585 44.978 8.25916Z" fill="#150042"/>
<path d="M37.0269 1.93646C37.2176 2.00981 37.4229 2.09783 37.6137 2.18585C37.4229 2.09783 37.2322 2.00981 37.0269 1.93646Z" fill="#150042"/>
<path d="M44.3325 7.65771C44.4499 7.7604 44.5672 7.86309 44.6846 7.98045C44.5672 7.87776 44.4499 7.7604 44.3325 7.65771Z" fill="#150042"/>
<path d="M30.2053 0.190735C30.3814 0.205405 30.5427 0.234745 30.7188 0.264084C30.5574 0.234745 30.3814 0.220075 30.2053 0.190735Z" fill="#150042"/>
<path d="M43.5842 7.01227C43.6722 7.08562 43.7456 7.15897 43.8336 7.21765C43.7456 7.15897 43.6576 7.08562 43.5842 7.01227Z" fill="#150042"/>
<path d="M16.9292 1.95114C16.9732 1.93647 17.0319 1.90713 17.0759 1.89246C17.0172 1.90713 16.9732 1.93647 16.9292 1.95114Z" fill="#150042"/>
<path d="M18.6309 1.33498C18.6455 1.33498 18.6455 1.33498 18.6602 1.32031C18.6455 1.32031 18.6455 1.33498 18.6309 1.33498Z" fill="#150042"/>
<path d="M11.9561 4.59172C12.0881 4.5037 12.2348 4.41568 12.3668 4.31299C12.2201 4.40101 12.0881 4.48903 11.9561 4.59172Z" fill="#150042"/>
<path d="M18.0586 1.52572C18.0733 1.52572 18.1026 1.51105 18.1173 1.51105C18.0879 1.51105 18.0733 1.52572 18.0586 1.52572Z" fill="#150042"/>
<path d="M17.4866 1.73106C17.5159 1.71639 17.5453 1.70172 17.5893 1.70172C17.5453 1.71639 17.5159 1.71639 17.4866 1.73106Z" fill="#150042"/>
<path d="M27.6821 1.04156C28.3129 1.05623 28.9584 1.10024 29.5892 1.15892C28.9584 1.10024 28.3276 1.05623 27.6821 1.04156Z" fill="#150042"/>
<path d="M37.7605 2.24451C37.9512 2.33253 38.1272 2.40588 38.318 2.4939C38.1419 2.40588 37.9512 2.33253 37.7605 2.24451Z" fill="#150042"/>
<path d="M11.4573 4.92912C11.5746 4.85577 11.692 4.76775 11.7947 4.6944C11.6773 4.76775 11.5746 4.85577 11.4573 4.92912Z" fill="#150042"/>
<path d="M27.2273 1.02692C27.374 1.02692 27.5354 1.02692 27.6821 1.02692C27.5207 1.04159 27.374 1.02692 27.2273 1.02692Z" fill="#150042"/>
<path d="M39.6968 3.18341C39.7408 3.21275 39.7995 3.24209 39.8435 3.25676C39.7995 3.22742 39.7408 3.19808 39.6968 3.18341Z" fill="#150042"/>
<path d="M37.2175 3.12469C37.2469 3.13936 37.2615 3.13936 37.2909 3.15403C37.2615 3.13936 37.2322 3.13936 37.2175 3.12469Z" fill="#150042"/>
<path d="M36.3813 2.78729C36.4987 2.8313 36.6014 2.87531 36.7188 2.91932C36.6161 2.87531 36.4987 2.8313 36.3813 2.78729Z" fill="#150042"/>
<path d="M40.8264 3.81421C40.8411 3.82888 40.8558 3.82888 40.8704 3.84355C40.8411 3.82888 40.8411 3.81421 40.8264 3.81421Z" fill="#150042"/>
<path d="M0.26398 23.2372C0.249311 23.3692 0.234641 23.4866 0.219971 23.6186C0.234641 23.5012 0.249311 23.3692 0.26398 23.2372Z" fill="#150042"/>
<path d="M0.469518 22.0489C0.704236 20.802 1.02697 19.5844 1.40839 18.4108C1.39372 18.4401 1.39372 18.4694 1.37905 18.4988C1.37905 18.5135 1.36438 18.5281 1.36438 18.5428C1.29103 18.7628 1.21768 18.9829 1.159 19.2029C1.14433 19.2763 1.11499 19.335 1.10032 19.4083C1.04164 19.5844 0.997635 19.7751 0.938955 19.9658C0.924285 20.0391 0.894945 20.0978 0.880275 20.1712C0.821596 20.3765 0.777586 20.5819 0.733576 20.7873C0.718906 20.8313 0.704236 20.89 0.704236 20.934C0.674897 21.0807 0.630887 21.2274 0.601547 21.3888C0.572207 21.5501 0.542867 21.6968 0.498857 21.8582C0.484188 21.9315 0.469518 22.0049 0.454848 22.0782C0.396168 22.4303 0.337488 22.7971 0.278809 23.1638C0.337488 22.7971 0.396168 22.4303 0.469518 22.0489Z" fill="#150042"/>
<path d="M0.176068 23.912C0.161398 23.9853 0.161398 24.044 0.146729 24.1174C0.161398 24.0587 0.176068 23.9853 0.176068 23.912Z" fill="#150042"/>
<path d="M0.132123 24.4401C0.117453 24.5575 0.117453 24.6748 0.102783 24.8069C0.102783 24.6748 0.117453 24.5575 0.132123 24.4401Z" fill="#150042"/>
<path d="M1.08545 25.3497V25.3937C1.08545 25.4377 1.08545 25.467 1.08545 25.511C1.10012 25.379 1.10012 25.247 1.11479 25.1003C1.10012 25.1883 1.08545 25.2763 1.08545 25.3497Z" fill="#150042"/>
<path d="M1.62846 21.4768C1.64313 21.4181 1.6578 21.3741 1.6578 21.3154C1.70181 21.1247 1.74582 20.9193 1.78983 20.7286C1.43775 22.1223 1.20303 23.5453 1.10034 24.9976C1.18836 23.9707 1.32039 22.9438 1.52577 21.9316C1.56978 21.7849 1.59912 21.6235 1.62846 21.4768Z" fill="#150042"/>
<path d="M27.0953 23.2079C23.6478 22.2396 19.9363 22.8118 16.9584 24.7335L16.5916 24.9829C16.5916 24.9829 16.0488 25.3057 15.7554 25.4523C12.6747 26.934 9.30065 27.0367 6.30798 26.0098C3.19796 24.9389 1.49625 21.5501 2.4938 18.4401C2.22975 19.1883 2.0097 19.9511 1.81899 20.714C1.77498 20.9047 1.73097 21.1101 1.68696 21.3008C1.67229 21.3594 1.65762 21.4035 1.65762 21.4621C1.62828 21.6088 1.59894 21.7555 1.5696 21.9169C1.36422 22.9291 1.21752 23.956 1.14417 24.9829C1.14417 25.0123 1.14417 25.0563 1.1295 25.0856C1.11483 25.2176 1.11483 25.3497 1.10016 25.4964C0.953463 28.8118 3.55004 31.6431 6.88011 31.8044C10.0341 31.9511 13.2615 30.9096 15.7994 28.6357C16.0341 28.4157 16.4742 27.9462 16.4742 27.9462L16.753 27.6088C19.2028 24.7922 22.8263 23.1932 26.6112 23.3252C27.0366 23.3399 27.4767 23.3839 27.9021 23.4426C27.6087 23.3692 27.3593 23.2812 27.0953 23.2079Z" fill="#6B6B6B"/>
<path d="M1.54039 35.9707C1.51105 35.8973 1.48171 35.824 1.46704 35.7506C1.46704 35.7653 1.48171 35.7946 1.48171 35.8093C1.49638 35.8533 1.52572 35.912 1.54039 35.9707Z" fill="#150042"/>
<path d="M1.90698 36.9389C1.95099 37.0416 1.98033 37.1443 2.02434 37.247C2.03901 37.291 2.06835 37.335 2.08302 37.379C2.1417 37.5257 2.21505 37.6871 2.27373 37.8338C2.44977 38.2299 2.62581 38.6259 2.83119 39.0074C2.49378 38.3325 2.18571 37.6431 1.90698 36.9389Z" fill="#150042"/>
<path d="M1.68701 36.3814C1.73102 36.5134 1.77503 36.6308 1.83371 36.7628C1.7897 36.6455 1.74569 36.5134 1.68701 36.3814Z" fill="#150042"/>
<path d="M1.11499 34.6357C1.14433 34.7531 1.18834 34.8851 1.23235 35.0025C1.18834 34.8851 1.14433 34.7678 1.11499 34.6357Z" fill="#150042"/>
<path d="M1.27637 35.1638C1.32038 35.3105 1.36439 35.4425 1.4084 35.5746C1.36439 35.4425 1.32038 35.2958 1.27637 35.1638Z" fill="#150042"/>
<path d="M0.968262 34.137C0.968262 34.1663 0.982932 34.181 0.982932 34.2103C0.982932 34.1956 0.982932 34.1663 0.968262 34.137Z" fill="#150042"/>
<path d="M53.8386 24.1174C53.8092 23.824 53.7652 23.5306 53.7212 23.2372C53.7212 23.2078 53.7212 23.1932 53.7065 23.1638C53.6919 23.0318 53.6625 22.8851 53.6479 22.7531C53.6479 22.7237 53.6332 22.6944 53.6332 22.6651C53.5892 22.4303 53.5452 22.1956 53.5012 21.9609C53.4865 21.9022 53.4718 21.8435 53.4718 21.7702C53.4571 21.6675 53.4278 21.5795 53.4131 21.4768C53.3985 21.3741 53.3691 21.2861 53.3545 21.1834C53.3398 21.0954 53.3251 21.022 53.2958 20.934C53.2518 20.7726 53.2224 20.5966 53.1784 20.4352C53.1784 20.4206 53.1784 20.4059 53.1638 20.3912C53.1491 20.3619 53.1491 20.3325 53.1344 20.2885C53.0904 20.1125 53.0464 19.9364 53.0024 19.7751C53.0024 19.7604 52.9877 19.7311 52.9877 19.7164C52.929 19.5257 52.885 19.335 52.8263 19.1589C52.4596 17.9267 51.9902 16.7237 51.4474 15.5648C51.4327 15.5355 51.418 15.5061 51.4034 15.4621C51.33 15.3154 51.2567 15.1687 51.1833 15.022C51.1246 14.9047 51.066 14.7873 51.0073 14.6699C50.9779 14.6113 50.9486 14.5379 50.9046 14.4792C50.2151 13.1589 49.4229 11.912 48.5281 10.7237C48.5134 10.7091 48.4987 10.6944 48.484 10.6797C48.3814 10.5477 48.2787 10.4157 48.176 10.2836C48.132 10.2396 48.1026 10.1956 48.0586 10.1369C47.9853 10.0342 47.8972 9.94623 47.8239 9.84354C47.7652 9.77019 47.7065 9.69684 47.6332 9.60882C47.5745 9.53547 47.5158 9.47679 47.4571 9.40344C47.3691 9.30075 47.2811 9.19806 47.1931 9.09537C47.1638 9.05136 47.1197 9.02202 47.0904 8.97801C46.973 8.84598 46.8557 8.72862 46.7383 8.59659C46.7237 8.58192 46.709 8.56725 46.6943 8.55258C45.9755 7.77508 45.198 7.04158 44.3911 6.36677C44.3618 6.33743 44.3325 6.32276 44.3031 6.29342C44.1711 6.19073 44.0537 6.08804 43.9217 5.98535C43.819 5.89733 43.7163 5.82398 43.6136 5.75063C43.555 5.70662 43.4963 5.66261 43.4523 5.6186C42.6161 4.97312 41.7359 4.37165 40.8263 3.82887C40.8117 3.8142 40.797 3.8142 40.7823 3.79953C40.621 3.71151 40.4596 3.60882 40.3129 3.5208C40.2836 3.50613 40.2542 3.49146 40.2249 3.47679C40.0928 3.40344 39.9461 3.33009 39.8141 3.24207C39.7701 3.21273 39.7114 3.18339 39.6674 3.16872C39.5501 3.11004 39.4474 3.05136 39.33 2.99268C39.2567 2.94867 39.1833 2.91933 39.11 2.87532C38.8899 2.75796 38.6552 2.65527 38.4351 2.53791C38.3911 2.52324 38.3471 2.4939 38.3031 2.47923C38.1124 2.39121 37.9364 2.3032 37.7457 2.22985C37.7016 2.21518 37.643 2.18584 37.599 2.17117C37.4082 2.08315 37.2029 2.0098 37.0122 1.92178C36.9828 1.90711 36.9388 1.89244 36.9095 1.87777C36.6748 1.78975 36.44 1.70173 36.2053 1.61371C36.176 1.59904 36.1466 1.59904 36.1173 1.58437C36.0293 1.55503 35.9559 1.52569 35.8679 1.49635C35.7799 1.46701 35.7065 1.43767 35.6185 1.40833C34.4303 1.01224 33.198 0.674833 31.9217 0.440115C31.5256 0.366765 31.1149 0.293415 30.7188 0.249406H30.7041C30.5281 0.220066 30.3667 0.205396 30.1907 0.176056C30.1026 0.161386 30.0146 0.161386 29.9266 0.146716C29.8386 0.132046 29.7506 0.132046 29.6625 0.117376C29.5012 0.102706 29.3398 0.0880364 29.1784 0.0733665C29.1638 0.0733665 29.1491 0.0733665 29.1344 0.0733665C28.7383 0.0440266 28.3422 0.0146868 27.9462 1.68476e-05C26.8752 -0.043993 25.819 -0.0146531 24.7628 0.0733665C24.7041 0.0733665 24.6601 0.0880364 24.6014 0.0880364C24.4547 0.102706 24.308 0.117376 24.1466 0.132046C22.9144 0.293415 21.6528 0.513464 20.3911 0.821533C19.9951 0.924222 19.599 1.02691 19.2175 1.14427C19.0268 1.20295 18.8508 1.26163 18.6601 1.32031C18.6454 1.32031 18.6454 1.32031 18.6307 1.33498C18.4547 1.39366 18.2787 1.45234 18.1173 1.51102C18.1026 1.51102 18.0733 1.52569 18.0586 1.52569C17.8973 1.58437 17.7359 1.64305 17.5892 1.70173C17.5598 1.7164 17.5305 1.73107 17.4865 1.73107C17.3545 1.78975 17.2078 1.83376 17.0757 1.89244C17.0317 1.90711 16.973 1.93645 16.929 1.95112C16.8263 1.99513 16.7237 2.03914 16.621 2.08315C16.5476 2.11249 16.4596 2.14183 16.3862 2.18584C16.2395 2.24452 16.0929 2.31787 15.9608 2.37654C15.8875 2.40588 15.7995 2.44989 15.7261 2.47923C15.0806 2.77263 14.4351 3.11004 13.819 3.44745C13.687 3.5208 13.5696 3.59415 13.4376 3.6675C13.2909 3.75552 13.1589 3.82887 13.0122 3.91689C13.0122 3.91689 12.9975 3.91689 12.9975 3.93156C12.8215 4.03425 12.6454 4.15161 12.4694 4.2543C12.44 4.26897 12.396 4.29831 12.3667 4.31297C12.2347 4.40099 12.088 4.48901 11.9559 4.5917C11.8973 4.62104 11.8532 4.66505 11.7946 4.69439C11.6772 4.76774 11.5598 4.85576 11.4572 4.92911C11.3985 4.97312 11.3251 5.01713 11.2664 5.06114C11.1784 5.11982 11.0904 5.19317 11.0024 5.25185C10.0048 5.98535 9.06596 6.77752 8.18576 7.64305C8.05373 7.76041 7.93637 7.89244 7.81901 8.0098C7.64297 8.18584 7.4816 8.36187 7.32023 8.53791C7.26156 8.59659 7.21755 8.65527 7.15887 8.71395C7.07085 8.80197 6.9975 8.88999 6.90948 8.99268C6.83613 9.0807 6.76278 9.15405 6.68943 9.24207C6.64542 9.30075 6.58674 9.34476 6.54273 9.40344C6.51339 9.43278 6.49872 9.46212 6.46938 9.49146C6.02928 10.0196 5.60385 10.5624 5.1931 11.1198C5.10508 11.2372 5.01706 11.3545 4.94371 11.4719C4.91437 11.5012 4.8997 11.5452 4.87036 11.5893C4.753 11.7653 4.63564 11.9267 4.51828 12.1027C4.47427 12.1614 4.43026 12.2201 4.40092 12.2934C3.8728 13.1149 3.37402 13.9658 2.91926 14.8607C2.56718 15.5501 2.25911 16.2543 1.96571 16.9585C1.89236 17.1198 1.83368 17.2959 1.775 17.4572C1.74566 17.5452 1.70165 17.6479 1.67231 17.736C1.65764 17.7653 1.64297 17.7946 1.64297 17.8386C1.56962 18.0294 1.51094 18.2347 1.43759 18.4254C1.04151 19.599 0.733437 20.8166 0.498719 22.0636C0.425369 22.445 0.366689 22.8118 0.30801 23.1785C0.30801 23.2078 0.30801 23.2225 0.29334 23.2519C0.27867 23.3839 0.264 23.5012 0.24933 23.6333C0.23466 23.736 0.21999 23.824 0.21999 23.9267C0.20532 24 0.20532 24.0587 0.20532 24.132C0.19065 24.2347 0.17598 24.3374 0.17598 24.4548C0.16131 24.5721 0.16131 24.7042 0.14664 24.8215C0.1173 25.2323 0.0879606 25.643 0.0732907 26.0685C-5.89304e-05 26.8166 -5.89266e-05 27.5795 0.0439509 28.3423C0.0586208 28.7677 0.0879606 29.1785 0.13197 29.5893C0.13197 29.6039 0.13197 29.6333 0.13197 29.6479C0.14664 29.7946 0.16131 29.956 0.17598 30.1027C0.17598 30.1174 0.17598 30.1174 0.17598 30.132C0.30801 31.2763 0.528058 32.4352 0.821457 33.5942C0.865467 33.7702 0.909477 33.9609 0.968156 34.1369C0.968156 34.1663 0.982826 34.1809 0.982826 34.2103C1.02684 34.357 1.05618 34.489 1.10019 34.6357C1.12953 34.7531 1.17354 34.8851 1.21755 35.0025C1.23221 35.0611 1.24688 35.1052 1.26155 35.1638C1.30556 35.2959 1.34957 35.4426 1.39358 35.5746C1.40825 35.6333 1.42292 35.6773 1.45226 35.736C1.4816 35.8093 1.51094 35.8827 1.52561 35.956C1.56962 36.1027 1.6283 36.2347 1.67231 36.3814C1.71632 36.5135 1.76033 36.6308 1.81901 36.7629C1.84835 36.8215 1.86302 36.8802 1.89236 36.9389C2.17109 37.643 2.47916 38.3325 2.81657 39.022C3.41803 40.225 4.10752 41.3839 4.87036 42.4841C4.87036 42.4988 4.88503 42.4988 4.88503 42.5135C5.00239 42.6748 5.10508 42.8362 5.22243 42.9829C5.25177 43.0269 5.28111 43.0709 5.32512 43.1149C5.41314 43.2323 5.50116 43.3496 5.58918 43.467C5.64786 43.5404 5.69187 43.599 5.75055 43.6724C5.8239 43.7604 5.88258 43.8338 5.95593 43.9218C6.02928 44.0098 6.10263 44.1125 6.17598 44.2005C6.21999 44.2445 6.24933 44.2885 6.29334 44.3472C7.42292 45.6968 8.66987 46.9291 10.0488 48.0294C10.753 48.5868 11.4718 49.1149 12.22 49.599C12.3667 49.6871 12.4987 49.7751 12.6454 49.8631C12.7041 49.8924 12.7628 49.9364 12.8215 49.9658C12.9388 50.0391 13.0415 50.0978 13.1589 50.1712C13.2616 50.2298 13.3496 50.2885 13.4523 50.3472C13.5256 50.3912 13.6136 50.4352 13.687 50.4792C13.8337 50.5526 13.9657 50.6406 14.1124 50.714C14.1564 50.7433 14.2004 50.758 14.2444 50.7873C14.4205 50.89 14.6112 50.978 14.7872 51.066C14.8166 51.0807 14.8312 51.0954 14.8606 51.0954C16.0488 51.6968 17.2664 52.1956 18.4987 52.6064C18.7188 52.6797 18.9535 52.7531 19.1735 52.8264C20.0977 53.1051 21.0366 53.3399 22.0195 53.5159C22.4156 53.5893 22.8117 53.6626 23.2224 53.7066C23.2371 53.7066 23.2518 53.7066 23.2811 53.7066C23.5158 53.736 23.7359 53.7653 23.9706 53.7946C24.1613 53.8093 24.352 53.8386 24.5281 53.8533C24.5427 53.8533 24.5574 53.8533 24.5721 53.8533C25.0415 53.8973 25.5256 53.9267 26.0097 53.9413C27.3447 53.9853 28.6796 53.9413 29.9706 53.7946C29.9999 53.7946 30.0146 53.7946 30.044 53.78C30.2347 53.7506 30.4254 53.736 30.6161 53.7066C30.6748 53.6919 30.7481 53.6919 30.8068 53.6773C30.9682 53.6479 31.1295 53.6333 31.2909 53.6039C31.3642 53.5893 31.4376 53.5746 31.5109 53.5599C31.6723 53.5306 31.8337 53.5012 31.9951 53.4719C32.0537 53.4572 32.1124 53.4426 32.1858 53.4426C32.3911 53.3985 32.5965 53.3545 32.8019 53.3105C32.8166 53.3105 32.8312 53.2959 32.8606 53.2959C33.0953 53.2372 33.33 53.1932 33.5647 53.1345C33.9168 53.0465 34.2689 52.9438 34.6063 52.8411C34.6503 52.8264 34.709 52.8117 34.753 52.7971C34.8557 52.7677 34.9584 52.7384 35.0611 52.7091C35.1638 52.6797 35.2664 52.6504 35.3691 52.6064C35.4278 52.5917 35.5012 52.5624 35.5598 52.5477C35.7065 52.5037 35.8532 52.445 35.9853 52.401C36.0146 52.3863 36.0586 52.3717 36.088 52.3717C36.264 52.313 36.44 52.2396 36.6161 52.1809C36.6307 52.1809 36.6307 52.1809 36.6454 52.1663C37.2322 51.9462 37.819 51.6968 38.3911 51.4181C38.4645 51.3888 38.5378 51.3448 38.6112 51.3154C38.7139 51.2714 38.8312 51.2127 38.9339 51.154C39.0806 51.0807 39.242 51.0074 39.3887 50.9193C39.418 50.9047 39.4474 50.89 39.4767 50.8753C40.0342 50.5819 40.5916 50.2739 41.1344 49.9364C41.1491 49.9364 41.1491 49.9218 41.1638 49.9218C41.3251 49.8191 41.4865 49.7164 41.6479 49.6137C41.6772 49.599 41.7065 49.5844 41.7359 49.555C41.8679 49.467 42.0146 49.379 42.1466 49.2763C42.1906 49.247 42.2347 49.2176 42.2787 49.1883C42.396 49.1149 42.5134 49.0269 42.6307 48.9389C42.6894 48.8949 42.7628 48.8509 42.8215 48.8069C42.9095 48.7335 43.0122 48.6748 43.1002 48.6015C43.1882 48.5428 43.2762 48.4695 43.3496 48.4108C43.4229 48.3521 43.4963 48.3081 43.555 48.2494C43.6576 48.1614 43.7603 48.088 43.863 48C43.907 47.956 43.951 47.9267 44.0097 47.8827C44.1417 47.78 44.2591 47.6773 44.3765 47.5746C44.4058 47.5599 44.4205 47.5306 44.4498 47.5159C44.5965 47.3985 44.7285 47.2665 44.8752 47.1492L44.8899 47.1345C45.8435 46.2836 46.7383 45.3741 47.5598 44.4059C47.6185 44.3472 47.6625 44.2739 47.7212 44.2152C47.7946 44.1272 47.8679 44.0391 47.9413 43.9364C48.0439 43.8044 48.1466 43.6724 48.2493 43.5404C48.264 43.511 48.2933 43.4963 48.308 43.467C48.7041 42.9536 49.0708 42.4401 49.4229 41.912C49.4229 41.8973 49.4376 41.8973 49.4376 41.8827C49.555 41.7213 49.6576 41.5452 49.7603 41.3839C49.7897 41.3399 49.8043 41.3105 49.8337 41.2665C49.9217 41.1198 50.0097 40.9878 50.0977 40.8411C50.1564 40.7531 50.2151 40.6504 50.2591 40.5477C50.3031 40.4597 50.3618 40.3717 50.4058 40.2836C50.6259 39.9022 50.8312 39.5061 51.0366 39.0954C51.0953 38.9927 51.1393 38.89 51.198 38.7873C51.2127 38.7433 51.242 38.6993 51.2567 38.6553C51.3153 38.5379 51.374 38.4206 51.418 38.3032C51.4327 38.2592 51.462 38.2152 51.4767 38.1712C51.5354 38.0391 51.5941 37.9218 51.6528 37.7897C51.6528 37.7751 51.6674 37.7751 51.6674 37.7604C51.9902 37.0269 52.2689 36.2934 52.5183 35.5599C52.9144 34.3863 53.2371 33.154 53.4718 31.8924C53.5745 31.3643 53.6479 30.8362 53.7212 30.3081C53.7359 30.2054 53.7505 30.1174 53.7505 30.0147C53.7652 29.9413 53.7652 29.868 53.7799 29.8093C53.7946 29.6333 53.8092 29.4719 53.8239 29.2959C53.8239 29.2812 53.8239 29.2665 53.8239 29.2372C53.8679 28.7971 53.8826 28.3423 53.8972 27.9022C54.0146 26.6553 53.9706 25.379 53.8386 24.1174ZM52.6356 31.1003C52.1662 34.0489 51.1833 36.8949 49.7457 39.4915C45.8875 45.2127 38.5818 47.956 31.6723 45.7555C26.4205 44.0831 23.5305 38.4792 25.2029 33.2274C25.6723 31.7457 26.6699 30.5721 27.9168 29.868C28.2249 29.6919 28.5623 29.5452 28.8997 29.4132C30.088 28.9878 31.4229 28.9291 32.7285 29.3545C33.3007 29.5306 33.7848 29.824 34.1955 30.2054C35.2664 31.1736 35.7652 32.6993 35.3691 34.1663C36.1466 31.511 35.5305 28.7677 33.9462 26.7286C32.9486 25.4523 31.5843 24.4548 29.9266 23.9413C29.2518 23.7213 28.5623 23.5746 27.8728 23.4719C27.4474 23.4132 27.0073 23.3692 26.5818 23.3545C22.797 23.2225 19.1735 24.8215 16.7237 27.6382L16.4449 27.9756C16.4449 27.9756 16.0048 28.445 15.7701 28.6651C13.2322 30.9389 10.0048 31.9951 6.8508 31.8338C3.53539 31.6724 0.938816 28.8411 1.07085 25.5257C1.07085 25.4817 1.07085 25.4523 1.07085 25.4083V25.3643C1.07085 25.2763 1.08552 25.203 1.08552 25.1149C1.08552 25.0856 1.08552 25.0416 1.10019 25.0122C1.21754 23.5599 1.43759 22.1369 1.78967 20.7433C1.80434 20.6993 1.81901 20.6406 1.81901 20.5966C2.09774 19.4963 2.44982 18.4108 2.87525 17.3545C2.87525 17.3545 2.87525 17.3545 2.87525 17.3399C2.97794 17.0758 3.0953 16.7971 3.21265 16.533C3.22732 16.5037 3.24199 16.4743 3.25666 16.4303C3.30067 16.3423 3.34468 16.2396 3.38869 16.1516C3.44737 16.0196 3.50605 15.9022 3.5794 15.7702C3.60874 15.7115 3.62341 15.6675 3.65275 15.6088C4.09285 14.714 4.57696 13.8338 5.11975 12.9682C5.45715 12.4548 5.80923 11.9413 6.17598 11.4426C6.21999 11.3839 6.264 11.3252 6.30801 11.2812C6.39603 11.1638 6.48405 11.0465 6.57207 10.9291C6.67476 10.7971 6.77745 10.6651 6.88014 10.5477C6.95349 10.445 7.04151 10.357 7.12953 10.2543C7.1442 10.2396 7.1442 10.2396 7.15887 10.225C7.17354 10.2103 7.18821 10.1809 7.21755 10.1663C7.26156 10.1076 7.30556 10.0636 7.34957 10.0049C7.37891 9.97557 7.40825 9.94623 7.43759 9.91689C7.83368 9.46212 8.24444 9.02202 8.66987 8.59659C9.06596 8.20051 9.47671 7.81909 9.88747 7.45234C10.1662 7.21762 10.4449 6.9829 10.7383 6.74818C10.7677 6.73351 10.7823 6.70417 10.8117 6.6895C10.9584 6.57214 11.1051 6.46945 11.2371 6.35209C11.7946 5.92667 12.3814 5.51591 12.9682 5.13449C13.3349 4.89977 13.7017 4.67972 14.0831 4.47434C14.2444 4.38632 14.4058 4.29831 14.5672 4.21029C14.5672 4.21029 14.5818 4.21029 14.5818 4.19562C14.6405 4.16628 14.6992 4.12227 14.7726 4.09293C14.8606 4.04892 14.9339 4.00491 15.0219 3.9609C15.1833 3.87288 15.3594 3.78486 15.5207 3.71151C15.5501 3.69684 15.5794 3.68217 15.5941 3.6675C15.6087 3.6675 15.6087 3.65283 15.6234 3.65283C15.7995 3.56481 15.9902 3.47679 16.1662 3.40344C16.1955 3.38877 16.2102 3.3741 16.2395 3.3741C16.2542 3.35943 16.2836 3.35943 16.2982 3.34476C16.8997 3.0807 17.5012 2.83131 18.1173 2.59659C18.6161 2.42055 19.1149 2.24452 19.6283 2.09782C20.0977 1.95112 20.5818 1.83376 21.0806 1.7164C21.5941 1.59904 22.1222 1.49635 22.6356 1.40833C22.6503 1.40833 22.6503 1.40833 22.665 1.40833C22.6796 1.40833 22.6943 1.40833 22.709 1.39366C23.5158 1.26163 24.308 1.15894 25.1149 1.10026C25.1442 1.10026 25.1735 1.10026 25.2029 1.10026C25.4083 1.08559 25.6283 1.07092 25.8337 1.07092C25.9364 1.07092 26.0244 1.07092 26.1271 1.05625C26.2591 1.05625 26.4058 1.04158 26.5378 1.04158C26.6552 1.04158 26.7872 1.04158 26.9046 1.04158C27.0073 1.04158 27.11 1.04158 27.198 1.04158C27.3447 1.04158 27.5061 1.04158 27.6528 1.04158H27.6674C28.2982 1.05625 28.9437 1.10026 29.5745 1.15894C29.5892 1.15894 29.6185 1.15894 29.6332 1.15894C29.7212 1.17361 29.8239 1.17361 29.9119 1.18828C29.9266 1.18828 29.9413 1.18828 29.9559 1.18828C30.132 1.20295 30.308 1.23229 30.484 1.24696C30.5574 1.26163 30.6454 1.26163 30.7188 1.2763C30.8215 1.29097 30.9241 1.30564 31.0415 1.32031C31.1882 1.33498 31.3202 1.36432 31.4669 1.39366C31.5109 1.39366 31.5403 1.40833 31.5843 1.40833C32.9633 1.65772 34.2982 2.0098 35.6039 2.46456C35.6332 2.47923 35.6625 2.47923 35.6919 2.4939C35.8532 2.55258 36.0146 2.61126 36.1613 2.66994C36.2347 2.69928 36.308 2.72862 36.3814 2.75796C36.4987 2.80197 36.6014 2.84598 36.7188 2.88999C36.8801 2.96334 37.0415 3.02202 37.2175 3.09537C37.2469 3.11004 37.2616 3.11004 37.2909 3.12471C38.6405 3.71151 39.9461 4.40099 41.2078 5.22251C41.2224 5.22251 41.2224 5.23718 41.2371 5.23718C41.3691 5.3252 41.5158 5.42789 41.6479 5.51591C41.7065 5.55992 41.7799 5.60393 41.8386 5.64794C41.9266 5.70662 42.0146 5.7653 42.088 5.82398C42.2053 5.912 42.3227 6.00002 42.4547 6.08804C42.484 6.11738 42.5134 6.13205 42.5427 6.14672C42.6014 6.19073 42.6601 6.23474 42.7188 6.27875C42.7628 6.30808 42.8215 6.35209 42.8655 6.3961C43.1002 6.58681 43.3496 6.77752 43.5843 6.96823C43.6723 7.04158 43.7457 7.11493 43.8337 7.17361C43.995 7.32031 44.1711 7.46701 44.3325 7.61371C44.4498 7.7164 44.5672 7.81909 44.6845 7.93645C44.7872 8.02447 44.8899 8.12716 44.9779 8.21518C45.1393 8.36187 45.286 8.50857 45.4327 8.66994C45.5061 8.75796 45.5941 8.83131 45.6674 8.91933C45.8141 9.0807 45.9755 9.24207 46.1222 9.40344C46.1809 9.46212 46.2249 9.5208 46.2836 9.57948C46.4743 9.79953 46.665 10.0196 46.8557 10.2396C46.885 10.269 46.9144 10.313 46.9437 10.3423C47.5892 11.1198 48.2053 11.956 48.7628 12.8069C48.7774 12.8362 48.7921 12.8655 48.8068 12.8802C48.8655 12.9682 48.9241 13.0563 48.9828 13.1443C48.9828 13.1589 48.9975 13.1589 48.9975 13.1736C49.0122 13.203 49.0268 13.2323 49.0562 13.2616C49.0708 13.291 49.0855 13.3203 49.1002 13.3497C49.1589 13.4377 49.2029 13.5257 49.2616 13.6137C49.2762 13.643 49.3056 13.6724 49.3202 13.7017C49.3349 13.7164 49.3496 13.7457 49.3642 13.7604C49.3789 13.7751 49.3789 13.7897 49.3936 13.8044C49.4523 13.8924 49.4963 13.9805 49.555 14.0685C49.555 14.0831 49.5696 14.0831 49.5696 14.0978C49.6136 14.1858 49.6723 14.2739 49.7163 14.3619C49.731 14.3912 49.7457 14.4206 49.7603 14.4499C49.775 14.4792 49.7897 14.5086 49.819 14.5526C49.819 14.5526 49.819 14.5673 49.8337 14.5673C49.8924 14.6699 49.951 14.7873 50.0097 14.89C50.0391 14.934 50.0537 14.978 50.0831 15.0367C50.1271 15.1247 50.1711 15.2127 50.2151 15.3154C50.2444 15.3741 50.2884 15.4474 50.3178 15.5061C50.3618 15.5795 50.3911 15.6528 50.4351 15.7408C50.4792 15.8289 50.5085 15.9022 50.5525 15.9902C50.5818 16.0489 50.6112 16.1076 50.6405 16.1663C50.6845 16.269 50.7285 16.3717 50.7872 16.4743C50.8019 16.5184 50.8312 16.5624 50.8459 16.6064C50.9046 16.7237 50.9486 16.8558 51.0073 16.9878C51.0219 17.0171 51.0219 17.0318 51.0366 17.0611C51.0953 17.2078 51.154 17.3545 51.2127 17.5012V17.5159C51.7848 18.9829 52.2395 20.5232 52.5329 22.1076C52.5329 22.1369 52.5476 22.1516 52.5476 22.1809C52.577 22.357 52.6063 22.5184 52.6356 22.6944C53.0904 25.555 53.0757 28.3717 52.6356 31.1003Z" fill="#150042"/>
<path d="M24.6309 8.27383H29.3839C29.5746 8.27383 29.6626 8.03911 29.5306 7.90708C28.7091 7.14425 28.0343 6.22004 27.5795 5.17848C27.5502 5.10513 27.4768 5.04645 27.3888 5.04645H26.6553C26.5673 5.04645 26.4939 5.09046 26.4646 5.17848C25.9952 6.22004 25.335 7.14425 24.5135 7.90708C24.3375 8.03911 24.4402 8.27383 24.6309 8.27383Z" fill="#150042"/>
</g>
</g>
<defs>
<clipPath id="clip0_224_301">
<rect width="54" height="54" fill="white"/>
</clipPath>
</defs>
</svg>
